<svg width="64" height="64" viewBox="0 0 64 64" fill="none" xmlns="http://www.w3.org/2000/svg">
<path fill-rule="evenodd" clip-rule="evenodd" d="M54.8676 60H9.13238C5.19327 60 2 56.8067 2 52.8676V48.8676C2 47.5749 2.35133 46.3065 3.01642 45.198L25.541 7.657C26.9023 5.38821 29.3542 4 32 4C34.6458 4 37.0977 5.38821 38.459 7.657L60.9836 45.198C61.6487 46.3065 62 47.5749 62 48.8676V52.8676C62 56.8067 58.8067 60 54.8676 60Z" fill="#815C13"/>
<path d="M54.8676 56H9.13238C7.40241 56 6 54.5976 6 52.8676V48.8676C6 48.2999 6.15429 47.7428 6.44639 47.256L28.971 9.71499C29.6094 8.65101 30.7592 8 32 8C33.2408 8 34.3906 8.65102 35.029 9.71499L57.5536 47.256C57.8457 47.7428 58 48.2999 58 48.8676V52.8676C58 54.5976 56.5976 56 54.8676 56Z" fill="#FEAA01"/>
<path d="M6.28501 47.525L29.4174 8.97101C29.7788 8.3686 30.4299 8 31.1324 8H32.8676C33.5701 8 34.2212 8.3686 34.5826 8.97101L57.715 47.525C57.9015 47.8358 58 48.1915 58 48.554V50C58 51.1046 57.1046 52 56 52H8C6.89543 52 6 51.1046 6 50V48.554C6 48.1915 6.09852 47.8358 6.28501 47.525Z" fill="url(#paint0_linear_8_30)"/>
<path d="M36 36V24C36 22.8954 35.1046 22 34 22H30C28.8954 22 28 22.8954 28 24V36C28 37.1046 28.8954 38 30 38H34C35.1046 38 36 37.1046 36 36Z" fill="#FEAA01"/>
<path d="M36 46C36 48.2091 34.2091 50 32 50C29.7909 50 28 48.2091 28 46V42H36V46Z" fill="#FEAA01"/>
<path d="M36 32V20C36 18.8954 35.1046 18 34 18H30C28.8954 18 28 18.8954 28 20V32C28 33.1046 28.8954 34 30 34H34C35.1046 34 36 33.1046 36 32Z" fill="#4A5764"/>
<path d="M32 46C34.2091 46 36 44.2091 36 42C36 39.7909 34.2091 38 32 38C29.7909 38 28 39.7909 28 42C28 44.2091 29.7909 46 32 46Z" fill="#4A5764"/>
<defs>
<linearGradient id="paint0_linear_8_30" x1="32" y1="8" x2="32" y2="52" gradientUnits="userSpaceOnUse">
<stop stop-color="#FFE7B8"/>
<stop offset="1" stop-color="#FFD175"/>
</linearGradient>
</defs>
</svg>
