<svg width="273" height="64" viewBox="0 0 273 64" fill="none" xmlns="http://www.w3.org/2000/svg">
<path fill-rule="evenodd" clip-rule="evenodd" d="M54.8676 60H9.13238C5.19327 60 2 56.8067 2 52.8676V48.8676C2 47.5749 2.35133 46.3065 3.01642 45.198L25.541 7.657C26.9023 5.38821 29.3542 4 32 4C34.6458 4 37.0977 5.38821 38.459 7.657L60.9836 45.198C61.6487 46.3065 62 47.5749 62 48.8676V52.8676C62 56.8067 58.8067 60 54.8676 60Z" fill="#815C13"/>
<path d="M54.8676 56H9.13238C7.40241 56 6 54.5976 6 52.8676V48.8676C6 48.2999 6.15429 47.7428 6.44639 47.256L28.971 9.71499C29.6094 8.65101 30.7592 8 32 8C33.2408 8 34.3906 8.65102 35.029 9.71499L57.5536 47.256C57.8457 47.7428 58 48.2999 58 48.8676V52.8676C58 54.5976 56.5976 56 54.8676 56Z" fill="#FEAA01"/>
<path d="M6.28501 47.525L29.4174 8.97101C29.7788 8.3686 30.4299 8 31.1324 8H32.8676C33.5701 8 34.2212 8.3686 34.5826 8.97101L57.715 47.525C57.9015 47.8358 58 48.1915 58 48.554V50C58 51.1046 57.1046 52 56 52H8C6.89543 52 6 51.1046 6 50V48.554C6 48.1915 6.09852 47.8358 6.28501 47.525Z" fill="url(#paint0_linear_8_30)"/>
<path d="M36 36V24C36 22.8954 35.1046 22 34 22H30C28.8954 22 28 22.8954 28 24V36C28 37.1046 28.8954 38 30 38H34C35.1046 38 36 37.1046 36 36Z" fill="#FEAA01"/>
<path d="M36 46C36 48.2091 34.2091 50 32 50C29.7909 50 28 48.2091 28 46V42H36V46Z" fill="#FEAA01"/>
<path d="M36 32V20C36 18.8954 35.1046 18 34 18H30C28.8954 18 28 18.8954 28 20V32C28 33.1046 28.8954 34 30 34H34C35.1046 34 36 33.1046 36 32Z" fill="#4A5764"/>
<path d="M32 46C34.2091 46 36 44.2091 36 42C36 39.7909 34.2091 38 32 38C29.7909 38 28 39.7909 28 42C28 44.2091 29.7909 46 32 46Z" fill="#4A5764"/>
<path d="M76.2 21L78.984 3.48H89.28L88.92 5.784H81.168L80.376 10.752H87.288L86.904 13.032H80.016L79.104 18.696H86.856L86.496 21H76.2ZM90.3506 21L93.1346 3.48H98.6306C99.7346 3.48 100.655 3.696 101.391 4.128C102.143 4.544 102.687 5.136 103.023 5.904C103.359 6.672 103.439 7.576 103.263 8.616C103.135 9.48 102.847 10.264 102.399 10.968C101.951 11.672 101.383 12.256 100.695 12.72C100.023 13.184 99.2626 13.496 98.4146 13.656L98.7266 12.36L101.559 21H98.7266L96.5426 13.8H94.0706L92.9426 21H90.3506ZM94.4306 11.52H97.3346C98.1986 11.52 98.9266 11.264 99.5186 10.752C100.127 10.224 100.495 9.528 100.623 8.664C100.767 7.768 100.623 7.064 100.191 6.552C99.7586 6.04 99.1106 5.784 98.2466 5.784H95.3426L94.4306 11.52ZM104.741 21L107.525 3.48H113.021C114.125 3.48 115.045 3.696 115.781 4.128C116.533 4.544 117.077 5.136 117.413 5.904C117.749 6.672 117.829 7.576 117.653 8.616C117.525 9.48 117.237 10.264 116.789 10.968C116.341 11.672 115.773 12.256 115.085 12.72C114.413 13.184 113.653 13.496 112.805 13.656L113.117 12.36L115.949 21H113.117L110.933 13.8H108.461L107.333 21H104.741ZM108.821 11.52H111.725C112.589 11.52 113.317 11.264 113.909 10.752C114.517 10.224 114.885 9.528 115.013 8.664C115.157 7.768 115.013 7.064 114.581 6.552C114.149 6.04 113.501 5.784 112.637 5.784H109.733L108.821 11.52ZM124.268 21.24C123.196 21.24 122.292 21.04 121.556 20.64C120.836 20.224 120.324 19.632 120.02 18.864C119.716 18.08 119.644 17.168 119.804 16.128L121.028 8.352C121.204 7.296 121.564 6.384 122.108 5.616C122.652 4.848 123.356 4.264 124.22 3.864C125.084 3.448 126.052 3.24 127.124 3.24C128.212 3.24 129.116 3.448 129.836 3.864C130.572 4.264 131.092 4.848 131.396 5.616C131.716 6.384 131.788 7.288 131.612 8.328L130.388 16.128C130.228 17.168 129.868 18.08 129.308 18.864C128.748 19.632 128.036 20.224 127.172 20.64C126.324 21.04 125.356 21.24 124.268 21.24ZM124.628 18.936C125.508 18.936 126.22 18.696 126.764 18.216C127.308 17.72 127.652 17.024 127.796 16.128L129.02 8.352C129.164 7.44 129.044 6.744 128.66 6.264C128.276 5.784 127.644 5.544 126.764 5.544C125.884 5.544 125.172 5.784 124.628 6.264C124.1 6.744 123.764 7.44 123.62 8.352L122.396 16.128C122.252 17.024 122.372 17.72 122.756 18.216C123.14 18.696 123.764 18.936 124.628 18.936ZM133.523 21L136.307 3.48H141.803C142.907 3.48 143.827 3.696 144.562 4.128C145.315 4.544 145.859 5.136 146.195 5.904C146.531 6.672 146.611 7.576 146.435 8.616C146.307 9.48 146.019 10.264 145.571 10.968C145.123 11.672 144.555 12.256 143.867 12.72C143.195 13.184 142.435 13.496 141.587 13.656L141.899 12.36L144.731 21H141.899L139.715 13.8H137.243L136.115 21H133.523ZM137.603 11.52H140.507C141.371 11.52 142.099 11.264 142.691 10.752C143.299 10.224 143.667 9.528 143.795 8.664C143.939 7.768 143.795 7.064 143.363 6.552C142.931 6.04 142.283 5.784 141.419 5.784H138.515L137.603 11.52ZM169.888 21L170.44 17.352H162.592L163.216 13.464L171.64 3.48H174.544L165.64 14.112L165.496 15.024H170.824L171.496 10.92H174.064L172.456 21H169.888ZM181.83 21.24C180.726 21.24 179.798 21.024 179.046 20.592C178.31 20.16 177.782 19.56 177.462 18.792C177.142 18.008 177.062 17.096 177.222 16.056L178.446 8.424C178.622 7.368 178.982 6.456 179.526 5.688C180.086 4.92 180.806 4.32 181.686 3.888C182.582 3.456 183.582 3.24 184.686 3.24C185.806 3.24 186.734 3.456 187.47 3.888C188.222 4.32 188.758 4.92 189.078 5.688C189.398 6.456 189.47 7.368 189.294 8.424L188.07 16.056C187.91 17.096 187.542 18.008 186.966 18.792C186.406 19.56 185.686 20.16 184.806 20.592C183.926 21.024 182.934 21.24 181.83 21.24ZM182.19 19.008C183.102 19.008 183.862 18.736 184.47 18.192C185.078 17.648 185.454 16.936 185.598 16.056L186.822 8.424C186.966 7.544 186.814 6.832 186.366 6.288C185.918 5.744 185.246 5.472 184.35 5.472C183.438 5.472 182.67 5.744 182.046 6.288C181.438 6.832 181.062 7.544 180.918 8.424L179.694 16.056C179.55 16.936 179.71 17.648 180.174 18.192C180.638 18.736 181.31 19.008 182.19 19.008ZM183.27 13.728C182.806 13.728 182.43 13.584 182.142 13.296C181.87 13.008 181.734 12.632 181.734 12.168C181.734 11.72 181.87 11.36 182.142 11.088C182.43 10.8 182.806 10.656 183.27 10.656C183.718 10.656 184.078 10.8 184.35 11.088C184.622 11.36 184.758 11.72 184.758 12.168C184.758 12.632 184.622 13.008 184.35 13.296C184.078 13.584 183.718 13.728 183.27 13.728ZM198.669 21L199.221 17.352H191.373L191.997 13.464L200.421 3.48H203.325L194.421 14.112L194.277 15.024H199.605L200.277 10.92H202.845L201.237 21H198.669ZM75.715 36L76.991 27.97H78.179L77.079 34.911H80.588L80.412 36H75.715ZM83.9607 36.11C83.3594 36.11 82.9084 35.9047 82.6077 35.494C82.3144 35.0833 82.2264 34.5297 82.3437 33.833L82.6077 32.128C82.681 31.6513 82.8277 31.2443 83.0477 30.907C83.2677 30.5697 83.539 30.3093 83.8617 30.126C84.1917 29.9353 84.5584 29.84 84.9617 29.84C85.4604 29.84 85.8344 29.9793 86.0837 30.258C86.3404 30.5293 86.4284 30.9033 86.3477 31.38L86.1387 31.105H86.4027L86.5677 29.95H87.7447L86.7877 36H85.6217L85.8087 34.845H85.5557L85.8527 34.57C85.772 35.0467 85.5594 35.4243 85.2147 35.703C84.8774 35.9743 84.4594 36.11 83.9607 36.11ZM84.5437 35.076C84.9177 35.076 85.2294 34.9623 85.4787 34.735C85.7354 34.5003 85.8967 34.1777 85.9627 33.767L86.2047 32.183C86.278 31.7723 86.223 31.4533 86.0397 31.226C85.8637 30.9913 85.585 30.874 85.2037 30.874C84.815 30.874 84.4997 30.9877 84.2577 31.215C84.0157 31.435 83.858 31.7577 83.7847 32.183L83.5427 33.767C83.4694 34.1923 83.5207 34.5187 83.6967 34.746C83.8727 34.966 84.155 35.076 84.5437 35.076ZM94.9081 37.98L96.1841 29.95H97.3611L97.1741 31.105H97.4271L97.1301 31.38C97.2034 30.9033 97.4124 30.5293 97.7571 30.258C98.1018 29.9793 98.5234 29.84 99.0221 29.84C99.6308 29.84 100.078 30.0453 100.364 30.456C100.657 30.8593 100.749 31.413 100.639 32.117L100.375 33.822C100.302 34.2913 100.155 34.6983 99.9351 35.043C99.7224 35.3803 99.4511 35.6443 99.1211 35.835C98.7984 36.0183 98.4318 36.11 98.0211 36.11C97.5298 36.11 97.1558 35.9743 96.8991 35.703C96.6424 35.4243 96.5508 35.0467 96.6241 34.57L96.8441 34.845H96.5691L96.3821 36.253L96.0961 37.98H94.9081ZM97.7791 35.076C98.1678 35.076 98.4831 34.966 98.7251 34.746C98.9744 34.5187 99.1321 34.1923 99.1981 33.767L99.4401 32.183C99.5134 31.7577 99.4621 31.435 99.2861 31.215C99.1101 30.9877 98.8314 30.874 98.4501 30.874C98.0761 30.874 97.7608 30.9913 97.5041 31.226C97.2548 31.4533 97.0934 31.7723 97.0201 32.183L96.7671 33.767C96.7011 34.1777 96.7598 34.5003 96.9431 34.735C97.1338 34.9623 97.4124 35.076 97.7791 35.076ZM103.748 36.11C103.146 36.11 102.695 35.9047 102.395 35.494C102.101 35.0833 102.013 34.5297 102.131 33.833L102.395 32.128C102.468 31.6513 102.615 31.2443 102.835 30.907C103.055 30.5697 103.326 30.3093 103.649 30.126C103.979 29.9353 104.345 29.84 104.749 29.84C105.247 29.84 105.621 29.9793 105.871 30.258C106.127 30.5293 106.215 30.9033 106.135 31.38L105.926 31.105H106.19L106.355 29.95H107.532L106.575 36H105.409L105.596 34.845H105.343L105.64 34.57C105.559 35.0467 105.346 35.4243 105.002 35.703C104.664 35.9743 104.246 36.11 103.748 36.11ZM104.331 35.076C104.705 35.076 105.016 34.9623 105.266 34.735C105.522 34.5003 105.684 34.1777 105.75 33.767L105.992 32.183C106.065 31.7723 106.01 31.4533 105.827 31.226C105.651 30.9913 105.372 30.874 104.991 30.874C104.602 30.874 104.287 30.9877 104.045 31.215C103.803 31.435 103.645 31.7577 103.572 32.183L103.33 33.767C103.256 34.1923 103.308 34.5187 103.484 34.746C103.66 34.966 103.942 35.076 104.331 35.076ZM108.914 37.98L109.068 36.957H110.927C111.235 36.957 111.477 36.8837 111.653 36.737C111.829 36.5903 111.939 36.374 111.983 36.088L112.082 35.483L112.28 34.361H112.027L112.313 34.141C112.232 34.603 112.027 34.966 111.697 35.23C111.367 35.494 110.956 35.626 110.465 35.626C109.841 35.626 109.379 35.4207 109.079 35.01C108.785 34.5993 108.694 34.0457 108.804 33.349L109.002 32.117C109.075 31.6477 109.218 31.2443 109.431 30.907C109.651 30.5697 109.926 30.3093 110.256 30.126C110.593 29.9353 110.967 29.84 111.378 29.84C111.869 29.84 112.239 29.9757 112.489 30.247C112.738 30.511 112.826 30.874 112.753 31.336L112.533 31.105H112.786L112.951 29.95H114.128L113.16 36.11C113.064 36.6893 112.804 37.144 112.379 37.474C111.961 37.8113 111.425 37.98 110.773 37.98H108.914ZM111.004 34.603C111.385 34.603 111.7 34.4893 111.95 34.262C112.199 34.0273 112.36 33.7047 112.434 33.294L112.599 32.183C112.672 31.7723 112.617 31.4533 112.434 31.226C112.25 30.9913 111.972 30.874 111.598 30.874C111.209 30.874 110.89 30.9877 110.641 31.215C110.399 31.435 110.245 31.7577 110.179 32.183L110.003 33.294C109.937 33.712 109.992 34.0347 110.168 34.262C110.344 34.4893 110.622 34.603 111.004 34.603ZM114.937 36L115.113 34.922H117.236L117.852 31.028H116.004L116.169 29.95H119.172L118.391 34.922H120.349L120.173 36H114.937ZM118.688 28.905C118.432 28.905 118.237 28.839 118.105 28.707C117.981 28.5677 117.933 28.3843 117.962 28.157C118.006 27.9223 118.113 27.739 118.281 27.607C118.457 27.4677 118.674 27.398 118.93 27.398C119.187 27.398 119.381 27.4677 119.513 27.607C119.645 27.739 119.693 27.9223 119.656 28.157C119.62 28.3843 119.513 28.5677 119.337 28.707C119.169 28.839 118.952 28.905 118.688 28.905ZM121.61 36L122.567 29.95H123.744L123.557 31.105H123.843L123.513 31.38C123.594 30.896 123.799 30.5183 124.129 30.247C124.459 29.9757 124.877 29.84 125.383 29.84C125.984 29.84 126.432 30.0343 126.725 30.423C127.026 30.8043 127.125 31.3213 127.022 31.974L126.384 36H125.196L125.812 32.106C125.871 31.71 125.812 31.402 125.636 31.182C125.467 30.962 125.196 30.852 124.822 30.852C124.448 30.852 124.136 30.9693 123.887 31.204C123.638 31.4313 123.476 31.7577 123.403 32.183L122.798 36H121.61ZM130.131 36.11C129.529 36.11 129.078 35.9047 128.778 35.494C128.484 35.0833 128.396 34.5297 128.514 33.833L128.778 32.128C128.851 31.6513 128.998 31.2443 129.218 30.907C129.438 30.5697 129.709 30.3093 130.032 30.126C130.362 29.9353 130.728 29.84 131.132 29.84C131.63 29.84 132.004 29.9793 132.254 30.258C132.51 30.5293 132.598 30.9033 132.518 31.38L132.309 31.105H132.573L132.738 29.95H133.915L132.958 36H131.792L131.979 34.845H131.726L132.023 34.57C131.942 35.0467 131.729 35.4243 131.385 35.703C131.047 35.9743 130.629 36.11 130.131 36.11ZM130.714 35.076C131.088 35.076 131.399 34.9623 131.649 34.735C131.905 34.5003 132.067 34.1777 132.133 33.767L132.375 32.183C132.448 31.7723 132.393 31.4533 132.21 31.226C132.034 30.9913 131.755 30.874 131.374 30.874C130.985 30.874 130.67 30.9877 130.428 31.215C130.186 31.435 130.028 31.7577 129.955 32.183L129.713 33.767C129.639 34.1923 129.691 34.5187 129.867 34.746C130.043 34.966 130.325 35.076 130.714 35.076ZM144.642 37.98L144.917 36.253L145.181 34.845H144.906L145.192 34.57C145.119 35.0467 144.913 35.4243 144.576 35.703C144.239 35.9743 143.821 36.11 143.322 36.11C142.713 36.11 142.262 35.9047 141.969 35.494C141.676 35.0833 141.584 34.526 141.694 33.822L141.958 32.117C142.031 31.6477 142.178 31.2443 142.398 30.907C142.618 30.5623 142.893 30.2983 143.223 30.115C143.553 29.9317 143.92 29.84 144.323 29.84C144.822 29.84 145.192 29.9793 145.434 30.258C145.683 30.5293 145.771 30.9033 145.698 31.38L145.489 31.105H145.742L145.929 29.95H147.106L145.83 37.98H144.642ZM143.894 35.076C144.275 35.076 144.591 34.9623 144.84 34.735C145.089 34.5003 145.247 34.1777 145.313 33.767L145.566 32.183C145.632 31.7723 145.573 31.4533 145.39 31.226C145.214 30.9913 144.935 30.874 144.554 30.874C144.173 30.874 143.857 30.9877 143.608 31.215C143.366 31.435 143.208 31.7577 143.135 32.183L142.893 33.767C142.827 34.1923 142.882 34.5187 143.058 34.746C143.234 34.966 143.513 35.076 143.894 35.076ZM150.336 36.11C149.61 36.11 149.063 35.901 148.697 35.483C148.337 35.0577 148.216 34.482 148.334 33.756L148.928 29.95H150.116L149.522 33.756C149.456 34.174 149.511 34.5003 149.687 34.735C149.863 34.9623 150.138 35.076 150.512 35.076C150.886 35.076 151.197 34.9623 151.447 34.735C151.703 34.5003 151.865 34.174 151.931 33.756L152.536 29.95H153.724L153.119 33.756C153.045 34.24 152.88 34.658 152.624 35.01C152.374 35.362 152.052 35.6333 151.656 35.824C151.267 36.0147 150.827 36.11 150.336 36.11ZM156.942 36.11C156.451 36.11 156.04 36.0147 155.71 35.824C155.38 35.626 155.142 35.351 154.995 34.999C154.856 34.647 154.823 34.2363 154.896 33.767L155.138 32.183C155.219 31.7063 155.388 31.2957 155.644 30.951C155.901 30.599 156.224 30.3277 156.612 30.137C157.008 29.939 157.452 29.84 157.943 29.84C158.442 29.84 158.856 29.939 159.186 30.137C159.516 30.3277 159.751 30.599 159.89 30.951C160.037 31.2957 160.07 31.7063 159.989 32.183L159.824 33.261H156.117L156.04 33.767C155.974 34.2143 156.029 34.5553 156.205 34.79C156.381 35.0247 156.682 35.142 157.107 35.142C157.452 35.142 157.734 35.0833 157.954 34.966C158.182 34.8413 158.339 34.6617 158.427 34.427H159.604C159.494 34.7717 159.311 35.0687 159.054 35.318C158.805 35.5673 158.497 35.7617 158.13 35.901C157.771 36.0403 157.375 36.11 156.942 36.11ZM158.79 32.546L158.845 32.172C158.919 31.732 158.867 31.391 158.691 31.149C158.523 30.907 158.226 30.786 157.8 30.786C157.375 30.786 157.034 30.907 156.777 31.149C156.528 31.391 156.367 31.7357 156.293 32.183L156.249 32.458L158.889 32.447L158.79 32.546ZM170.563 36.11C170.064 36.11 169.69 35.9743 169.441 35.703C169.192 35.4243 169.104 35.0467 169.177 34.57L169.397 34.845H169.144L168.957 36H167.78L169.056 27.97H170.244L169.969 29.697L169.705 31.105H169.98L169.683 31.38C169.756 30.9033 169.965 30.5293 170.31 30.258C170.655 29.9793 171.073 29.84 171.564 29.84C172.173 29.84 172.624 30.0453 172.917 30.456C173.21 30.8667 173.302 31.424 173.192 32.128L172.928 33.833C172.855 34.3023 172.708 34.7057 172.488 35.043C172.268 35.3803 171.993 35.6443 171.663 35.835C171.34 36.0183 170.974 36.11 170.563 36.11ZM170.332 35.076C170.713 35.076 171.029 34.966 171.278 34.746C171.527 34.5187 171.685 34.1923 171.751 33.767L171.993 32.183C172.066 31.7577 172.011 31.435 171.828 31.215C171.652 30.9877 171.373 30.874 170.992 30.874C170.618 30.874 170.306 30.9913 170.057 31.226C169.808 31.4533 169.646 31.7723 169.573 32.183L169.32 33.767C169.254 34.1777 169.313 34.5003 169.496 34.735C169.679 34.9623 169.958 35.076 170.332 35.076ZM176.719 36.11C175.993 36.11 175.446 35.901 175.08 35.483C174.72 35.0577 174.599 34.482 174.717 33.756L175.311 29.95H176.499L175.905 33.756C175.839 34.174 175.894 34.5003 176.07 34.735C176.246 34.9623 176.521 35.076 176.895 35.076C177.269 35.076 177.58 34.9623 177.83 34.735C178.086 34.5003 178.248 34.174 178.314 33.756L178.919 29.95H180.107L179.502 33.756C179.428 34.24 179.263 34.658 179.007 35.01C178.757 35.362 178.435 35.6333 178.039 35.824C177.65 36.0147 177.21 36.11 176.719 36.11ZM183.083 36.11C182.423 36.11 181.917 35.9597 181.565 35.659C181.221 35.351 181.07 34.944 181.114 34.438H182.302C182.302 34.636 182.383 34.7973 182.544 34.922C182.706 35.0467 182.937 35.109 183.237 35.109H183.71C184.077 35.109 184.359 35.0357 184.557 34.889C184.763 34.735 184.887 34.537 184.931 34.295C184.961 34.0603 184.906 33.8733 184.766 33.734C184.634 33.5873 184.411 33.492 184.095 33.448L183.336 33.327C182.713 33.2317 182.266 33.052 181.994 32.788C181.73 32.524 181.639 32.128 181.719 31.6C181.8 31.0427 182.046 30.61 182.456 30.302C182.874 29.994 183.443 29.84 184.161 29.84H184.579C185.203 29.84 185.679 29.9867 186.009 30.28C186.347 30.5733 186.501 30.962 186.471 31.446H185.283C185.283 31.27 185.206 31.127 185.052 31.017C184.906 30.8997 184.693 30.841 184.414 30.841H183.996C183.652 30.841 183.391 30.907 183.215 31.039C183.039 31.171 182.929 31.3617 182.885 31.611C182.856 31.831 182.896 31.9997 183.006 32.117C183.116 32.2343 183.318 32.3187 183.611 32.37L184.392 32.491C185.052 32.5937 185.522 32.7807 185.8 33.052C186.086 33.3233 186.189 33.7267 186.108 34.262C186.013 34.8413 185.749 35.296 185.316 35.626C184.891 35.9487 184.301 36.11 183.545 36.11H183.083ZM189.965 36.11C189.466 36.11 189.045 36.0183 188.7 35.835C188.363 35.6443 188.121 35.373 187.974 35.021C187.835 34.6617 187.802 34.2437 187.875 33.767L188.117 32.183C188.198 31.699 188.366 31.281 188.623 30.929C188.88 30.577 189.21 30.3093 189.613 30.126C190.016 29.9353 190.467 29.84 190.966 29.84C191.692 29.84 192.242 30.0307 192.616 30.412C192.997 30.7933 193.148 31.314 193.067 31.974H191.89C191.919 31.6293 191.839 31.3617 191.648 31.171C191.457 30.9803 191.171 30.885 190.79 30.885C190.387 30.885 190.057 30.9987 189.8 31.226C189.543 31.446 189.382 31.7613 189.316 32.172L189.063 33.767C188.997 34.1777 189.056 34.4967 189.239 34.724C189.43 34.9513 189.727 35.065 190.13 35.065C190.511 35.065 190.827 34.9697 191.076 34.779C191.325 34.5883 191.49 34.3207 191.571 33.976H192.759C192.627 34.636 192.308 35.1567 191.802 35.538C191.303 35.9193 190.691 36.11 189.965 36.11ZM196.088 36.11C195.486 36.11 195.035 35.9047 194.735 35.494C194.441 35.0833 194.353 34.5297 194.471 33.833L194.735 32.128C194.808 31.6513 194.955 31.2443 195.175 30.907C195.395 30.5697 195.666 30.3093 195.989 30.126C196.319 29.9353 196.685 29.84 197.089 29.84C197.587 29.84 197.961 29.9793 198.211 30.258C198.467 30.5293 198.555 30.9033 198.475 31.38L198.266 31.105H198.53L198.695 29.95H199.872L198.915 36H197.749L197.936 34.845H197.683L197.98 34.57C197.899 35.0467 197.686 35.4243 197.342 35.703C197.004 35.9743 196.586 36.11 196.088 36.11ZM196.671 35.076C197.045 35.076 197.356 34.9623 197.606 34.735C197.862 34.5003 198.024 34.1777 198.09 33.767L198.332 32.183C198.405 31.7723 198.35 31.4533 198.167 31.226C197.991 30.9913 197.712 30.874 197.331 30.874C196.942 30.874 196.627 30.9877 196.385 31.215C196.143 31.435 195.985 31.7577 195.912 32.183L195.67 33.767C195.596 34.1923 195.648 34.5187 195.824 34.746C196 34.966 196.282 35.076 196.671 35.076ZM202.87 36.11C202.21 36.11 201.704 35.9597 201.352 35.659C201.008 35.351 200.857 34.944 200.901 34.438H202.089C202.089 34.636 202.17 34.7973 202.331 34.922C202.493 35.0467 202.724 35.109 203.024 35.109H203.497C203.864 35.109 204.146 35.0357 204.344 34.889C204.55 34.735 204.674 34.537 204.718 34.295C204.748 34.0603 204.693 33.8733 204.553 33.734C204.421 33.5873 204.198 33.492 203.882 33.448L203.123 33.327C202.5 33.2317 202.053 33.052 201.781 32.788C201.517 32.524 201.426 32.128 201.506 31.6C201.587 31.0427 201.833 30.61 202.243 30.302C202.661 29.994 203.23 29.84 203.948 29.84H204.366C204.99 29.84 205.466 29.9867 205.796 30.28C206.134 30.5733 206.288 30.962 206.258 31.446H205.07C205.07 31.27 204.993 31.127 204.839 31.017C204.693 30.8997 204.48 30.841 204.201 30.841H203.783C203.439 30.841 203.178 30.907 203.002 31.039C202.826 31.171 202.716 31.3617 202.672 31.611C202.643 31.831 202.683 31.9997 202.793 32.117C202.903 32.2343 203.105 32.3187 203.398 32.37L204.179 32.491C204.839 32.5937 205.309 32.7807 205.587 33.052C205.873 33.3233 205.976 33.7267 205.895 34.262C205.8 34.8413 205.536 35.296 205.103 35.626C204.678 35.9487 204.088 36.11 203.332 36.11H202.87ZM213.95 36L214.907 29.95H216.084L215.897 31.105H216.183L215.853 31.38C215.933 30.896 216.139 30.5183 216.469 30.247C216.799 29.9757 217.217 29.84 217.723 29.84C218.324 29.84 218.771 30.0343 219.065 30.423C219.365 30.8043 219.464 31.3213 219.362 31.974L218.724 36H217.536L218.152 32.106C218.21 31.71 218.152 31.402 217.976 31.182C217.807 30.962 217.536 30.852 217.162 30.852C216.788 30.852 216.476 30.9693 216.227 31.204C215.977 31.4313 215.816 31.7577 215.743 32.183L215.138 36H213.95ZM222.899 36.11C222.408 36.11 221.994 36.0183 221.656 35.835C221.326 35.6443 221.092 35.373 220.952 35.021C220.813 34.6617 220.78 34.2437 220.853 33.767L221.095 32.183C221.176 31.699 221.341 31.281 221.59 30.929C221.847 30.577 222.173 30.3093 222.569 30.126C222.965 29.9353 223.409 29.84 223.9 29.84C224.399 29.84 224.813 29.9353 225.143 30.126C225.473 30.3093 225.708 30.577 225.847 30.929C225.994 31.281 226.031 31.6953 225.957 32.172L225.704 33.767C225.631 34.2437 225.466 34.6617 225.209 35.021C224.953 35.373 224.626 35.6443 224.23 35.835C223.842 36.0183 223.398 36.11 222.899 36.11ZM223.064 35.065C223.468 35.065 223.794 34.955 224.043 34.735C224.293 34.515 224.45 34.1923 224.516 33.767L224.758 32.183C224.832 31.7577 224.777 31.435 224.593 31.215C224.417 30.995 224.131 30.885 223.735 30.885C223.339 30.885 223.017 30.995 222.767 31.215C222.518 31.435 222.357 31.7577 222.283 32.183L222.041 33.767C221.975 34.1923 222.03 34.515 222.206 34.735C222.39 34.955 222.676 35.065 223.064 35.065ZM236.091 36.11C235.6 36.11 235.189 36.0147 234.859 35.824C234.529 35.626 234.291 35.351 234.144 34.999C234.005 34.647 233.972 34.2363 234.045 33.767L234.287 32.183C234.368 31.7063 234.536 31.2957 234.793 30.951C235.05 30.599 235.372 30.3277 235.761 30.137C236.157 29.939 236.601 29.84 237.092 29.84C237.591 29.84 238.005 29.939 238.335 30.137C238.665 30.3277 238.9 30.599 239.039 30.951C239.186 31.2957 239.219 31.7063 239.138 32.183L238.973 33.261H235.266L235.189 33.767C235.123 34.2143 235.178 34.5553 235.354 34.79C235.53 35.0247 235.831 35.142 236.256 35.142C236.601 35.142 236.883 35.0833 237.103 34.966C237.33 34.8413 237.488 34.6617 237.576 34.427H238.753C238.643 34.7717 238.46 35.0687 238.203 35.318C237.954 35.5673 237.646 35.7617 237.279 35.901C236.92 36.0403 236.524 36.11 236.091 36.11ZM237.939 32.546L237.994 32.172C238.067 31.732 238.016 31.391 237.84 31.149C237.671 30.907 237.374 30.786 236.949 30.786C236.524 30.786 236.183 30.907 235.926 31.149C235.677 31.391 235.515 31.7357 235.442 32.183L235.398 32.458L238.038 32.447L237.939 32.546ZM239.915 36L242.5 32.843L241.015 29.95H242.346L243.116 31.622C243.152 31.71 243.189 31.8053 243.226 31.908C243.27 32.0033 243.299 32.084 243.314 32.15C243.35 32.084 243.398 32.0033 243.457 31.908C243.523 31.8053 243.589 31.71 243.655 31.622L244.942 29.95H246.328L243.919 32.92L245.503 36H244.161L243.314 34.185C243.277 34.097 243.237 33.998 243.193 33.888C243.149 33.778 243.119 33.69 243.105 33.624C243.061 33.69 243.006 33.778 242.94 33.888C242.874 33.998 242.808 34.097 242.742 34.185L241.301 36H239.915ZM246.851 36L247.027 34.922H249.15L249.766 31.028H247.918L248.083 29.95H251.086L250.305 34.922H252.263L252.087 36H246.851ZM250.602 28.905C250.346 28.905 250.151 28.839 250.019 28.707C249.895 28.5677 249.847 28.3843 249.876 28.157C249.92 27.9223 250.027 27.739 250.195 27.607C250.371 27.4677 250.588 27.398 250.844 27.398C251.101 27.398 251.295 27.4677 251.427 27.607C251.559 27.739 251.607 27.9223 251.57 28.157C251.534 28.3843 251.427 28.5677 251.251 28.707C251.083 28.839 250.866 28.905 250.602 28.905ZM255.636 36.11C254.976 36.11 254.47 35.9597 254.118 35.659C253.773 35.351 253.623 34.944 253.667 34.438H254.855C254.855 34.636 254.936 34.7973 255.097 34.922C255.258 35.0467 255.489 35.109 255.79 35.109H256.263C256.63 35.109 256.912 35.0357 257.11 34.889C257.315 34.735 257.44 34.537 257.484 34.295C257.513 34.0603 257.458 33.8733 257.319 33.734C257.187 33.5873 256.963 33.492 256.648 33.448L255.889 33.327C255.266 33.2317 254.818 33.052 254.547 32.788C254.283 32.524 254.191 32.128 254.272 31.6C254.353 31.0427 254.598 30.61 255.009 30.302C255.427 29.994 255.995 29.84 256.714 29.84H257.132C257.755 29.84 258.232 29.9867 258.562 30.28C258.899 30.5733 259.053 30.962 259.024 31.446H257.836C257.836 31.27 257.759 31.127 257.605 31.017C257.458 30.8997 257.246 30.841 256.967 30.841H256.549C256.204 30.841 255.944 30.907 255.768 31.039C255.592 31.171 255.482 31.3617 255.438 31.611C255.409 31.831 255.449 31.9997 255.559 32.117C255.669 32.2343 255.871 32.3187 256.164 32.37L256.945 32.491C257.605 32.5937 258.074 32.7807 258.353 33.052C258.639 33.3233 258.742 33.7267 258.661 34.262C258.566 34.8413 258.302 35.296 257.869 35.626C257.444 35.9487 256.853 36.11 256.098 36.11H255.636ZM263.156 36C262.606 36 262.199 35.8497 261.935 35.549C261.678 35.2483 261.594 34.8303 261.682 34.295L262.199 31.028H260.527L260.692 29.95H262.364L262.628 28.3H263.816L263.552 29.95H265.917L265.752 31.028H263.387L262.87 34.295C262.796 34.713 262.965 34.922 263.376 34.922H265.026L264.85 36H263.156ZM269.069 36.11C268.578 36.11 268.167 36.0147 267.837 35.824C267.507 35.626 267.269 35.351 267.122 34.999C266.983 34.647 266.95 34.2363 267.023 33.767L267.265 32.183C267.346 31.7063 267.515 31.2957 267.771 30.951C268.028 30.599 268.351 30.3277 268.739 30.137C269.135 29.939 269.579 29.84 270.07 29.84C270.569 29.84 270.983 29.939 271.313 30.137C271.643 30.3277 271.878 30.599 272.017 30.951C272.164 31.2957 272.197 31.7063 272.116 32.183L271.951 33.261H268.244L268.167 33.767C268.101 34.2143 268.156 34.5553 268.332 34.79C268.508 35.0247 268.809 35.142 269.234 35.142C269.579 35.142 269.861 35.0833 270.081 34.966C270.309 34.8413 270.466 34.6617 270.554 34.427H271.731C271.621 34.7717 271.438 35.0687 271.181 35.318C270.932 35.5673 270.624 35.7617 270.257 35.901C269.898 36.0403 269.502 36.11 269.069 36.11ZM270.917 32.546L270.972 32.172C271.046 31.732 270.994 31.391 270.818 31.149C270.65 30.907 270.353 30.786 269.927 30.786C269.502 30.786 269.161 30.907 268.904 31.149C268.655 31.391 268.494 31.7357 268.42 32.183L268.376 32.458L271.016 32.447L270.917 32.546Z" fill="white"/>
<defs>
<linearGradient id="paint0_linear_8_30" x1="32" y1="8" x2="32" y2="52" gradientUnits="userSpaceOnUse">
<stop stop-color="#FFE7B8"/>
<stop offset="1" stop-color="#FFD175"/>
</linearGradient>
</defs>
</svg>
