<svg width="152" height="30" viewBox="0 0 152 30" fill="none" xmlns="http://www.w3.org/2000/svg">
<g filter="url(#filter0_d_7_27)">
<mask id="path-1-outside-1_7_27" maskUnits="userSpaceOnUse" x="4" y="0" width="144" height="22" fill="black">
<rect fill="white" x="4" width="144" height="22"/>
<path d="M10.192 20.24C9.104 20.24 8.184 20.04 7.432 19.64C6.696 19.224 6.168 18.632 5.848 17.864C5.544 17.08 5.472 16.168 5.632 15.128L6.856 7.352C7.032 6.296 7.4 5.384 7.96 4.616C8.52 3.848 9.232 3.264 10.096 2.864C10.976 2.448 11.96 2.24 13.048 2.24C14.136 2.24 15.04 2.448 15.76 2.864C16.496 3.28 17.024 3.872 17.344 4.64C17.68 5.392 17.76 6.296 17.584 7.352H14.992C15.152 6.44 15.024 5.744 14.608 5.264C14.208 4.784 13.568 4.544 12.688 4.544C11.808 4.544 11.08 4.784 10.504 5.264C9.944 5.744 9.592 6.432 9.448 7.328L8.224 15.128C8.08 16.024 8.216 16.72 8.632 17.216C9.048 17.712 9.688 17.96 10.552 17.96C11.432 17.96 12.152 17.712 12.712 17.216C13.272 16.72 13.624 16.024 13.768 15.128L14.08 13.16H10.816L11.176 10.88H17.032L16.36 15.128C16.2 16.168 15.84 17.072 15.28 17.84C14.72 18.608 14 19.2 13.12 19.616C12.256 20.032 11.28 20.24 10.192 20.24ZM24.4866 20.24C23.4146 20.24 22.5186 20.032 21.7986 19.616C21.0786 19.184 20.5586 18.584 20.2386 17.816C19.9346 17.048 19.8626 16.152 20.0226 15.128L20.5506 11.672C20.7266 10.632 21.0946 9.736 21.6546 8.984C22.2146 8.216 22.9186 7.624 23.7666 7.208C24.6306 6.776 25.5986 6.56 26.6706 6.56C27.7586 6.56 28.6626 6.776 29.3826 7.208C30.1026 7.624 30.6146 8.216 30.9186 8.984C31.2386 9.736 31.3106 10.632 31.1346 11.672L30.7746 14.024H22.6866L22.5186 15.128C22.3746 16.104 22.4946 16.848 22.8786 17.36C23.2626 17.872 23.9186 18.128 24.8466 18.128C25.5986 18.128 26.2146 18 26.6946 17.744C27.1906 17.472 27.5346 17.08 27.7266 16.568H30.2946C30.0546 17.32 29.6546 17.968 29.0946 18.512C28.5506 19.056 27.8786 19.48 27.0786 19.784C26.2946 20.088 25.4306 20.24 24.4866 20.24ZM28.5186 12.464L28.6386 11.648C28.7986 10.688 28.6866 9.944 28.3026 9.416C27.9346 8.888 27.2866 8.624 26.3586 8.624C25.4306 8.624 24.6866 8.888 24.1266 9.416C23.5826 9.944 23.2306 10.696 23.0706 11.672L22.9746 12.272L28.7346 12.248L28.5186 12.464ZM38.8773 20.24C37.8053 20.24 36.9013 20.04 36.1653 19.64C35.4453 19.224 34.9333 18.632 34.6293 17.864C34.3253 17.08 34.2533 16.168 34.4133 15.128L34.9413 11.672C35.1173 10.616 35.4773 9.704 36.0213 8.936C36.5813 8.168 37.2933 7.584 38.1573 7.184C39.0213 6.768 39.9893 6.56 41.0613 6.56C42.1493 6.56 43.0533 6.768 43.7733 7.184C44.4933 7.584 45.0053 8.168 45.3093 8.936C45.6293 9.704 45.7093 10.608 45.5493 11.648L44.9973 15.128C44.8373 16.168 44.4773 17.08 43.9173 17.864C43.3573 18.632 42.6453 19.224 41.7813 19.64C40.9333 20.04 39.9653 20.24 38.8773 20.24ZM39.2373 17.96C40.1173 17.96 40.8293 17.72 41.3733 17.24C41.9173 16.76 42.2613 16.056 42.4053 15.128L42.9333 11.672C43.0933 10.744 42.9733 10.04 42.5733 9.56C42.1893 9.08 41.5653 8.84 40.7013 8.84C39.8373 8.84 39.1333 9.08 38.5893 9.56C38.0453 10.04 37.6933 10.744 37.5333 11.672L37.0053 15.128C36.8613 16.056 36.9813 16.76 37.3653 17.24C37.7653 17.72 38.3893 17.96 39.2373 17.96ZM47.6999 20L50.4839 2.48H53.6279L54.4679 8.096C54.5479 8.624 54.6199 9.136 54.6839 9.632C54.7479 10.112 54.7879 10.472 54.8039 10.712C54.8999 10.472 55.0359 10.112 55.2119 9.632C55.4039 9.136 55.6279 8.624 55.8839 8.096L58.4759 2.48H61.7159L58.9319 20H56.4839L57.4199 14.096C57.5479 13.312 57.6999 12.464 57.8759 11.552C58.0679 10.624 58.2759 9.696 58.4999 8.768C58.7239 7.84 58.9399 6.952 59.1479 6.104C59.3719 5.256 59.5639 4.512 59.7239 3.872L55.8119 12.392H53.2919L51.9959 3.872C51.9799 4.496 51.9479 5.224 51.8999 6.056C51.8519 6.872 51.7879 7.744 51.7079 8.672C51.6279 9.6 51.5399 10.536 51.4439 11.48C51.3479 12.408 51.2279 13.28 51.0839 14.096L50.1479 20H47.6999ZM67.6585 20.24C66.5865 20.24 65.6905 20.032 64.9705 19.616C64.2505 19.184 63.7305 18.584 63.4105 17.816C63.1065 17.048 63.0345 16.152 63.1945 15.128L63.7225 11.672C63.8985 10.632 64.2665 9.736 64.8265 8.984C65.3865 8.216 66.0905 7.624 66.9385 7.208C67.8025 6.776 68.7705 6.56 69.8425 6.56C70.9305 6.56 71.8345 6.776 72.5545 7.208C73.2745 7.624 73.7865 8.216 74.0905 8.984C74.4105 9.736 74.4825 10.632 74.3065 11.672L73.9465 14.024H65.8585L65.6905 15.128C65.5465 16.104 65.6665 16.848 66.0505 17.36C66.4345 17.872 67.0905 18.128 68.0185 18.128C68.7705 18.128 69.3865 18 69.8665 17.744C70.3625 17.472 70.7065 17.08 70.8985 16.568H73.4665C73.2265 17.32 72.8265 17.968 72.2665 18.512C71.7225 19.056 71.0505 19.48 70.2505 19.784C69.4665 20.088 68.6025 20.24 67.6585 20.24ZM71.6905 12.464L71.8105 11.648C71.9705 10.688 71.8585 9.944 71.4745 9.416C71.1065 8.888 70.4585 8.624 69.5305 8.624C68.6025 8.624 67.8585 8.888 67.2985 9.416C66.7545 9.944 66.4025 10.696 66.2425 11.672L66.1465 12.272L71.9065 12.248L71.6905 12.464ZM81.1131 20.24C79.8011 20.24 78.8251 19.792 78.1851 18.896C77.5451 18 77.3451 16.792 77.5851 15.272L78.1611 11.552C78.3211 10.512 78.6411 9.624 79.1211 8.888C79.6011 8.152 80.1931 7.584 80.8971 7.184C81.6171 6.768 82.4171 6.56 83.2971 6.56C84.3851 6.56 85.2011 6.864 85.7451 7.472C86.3051 8.064 86.4971 8.88 86.3211 9.92L85.8651 9.32H86.4411L86.8731 6.248L87.4971 2.48H90.0651L87.2811 20H84.7371L85.1451 17.48H84.5931L85.2411 16.88C85.0651 17.92 84.6011 18.744 83.8491 19.352C83.1131 19.944 82.2011 20.24 81.1131 20.24ZM82.3851 17.984C83.2011 17.984 83.8811 17.736 84.4251 17.24C84.9851 16.728 85.3371 16.024 85.4811 15.128L86.0091 11.672C86.1691 10.776 86.0491 10.08 85.6491 9.584C85.2651 9.072 84.6571 8.816 83.8251 8.816C82.9771 8.816 82.2891 9.064 81.7611 9.56C81.2331 10.04 80.8891 10.744 80.7291 11.672L80.2011 15.128C80.0411 16.056 80.1531 16.768 80.5371 17.264C80.9211 17.744 81.5371 17.984 82.3851 17.984ZM91.1357 20L91.5198 17.648H96.1518L97.4958 9.152H93.4638L93.8238 6.8H100.376L98.6718 17.648H102.944L102.56 20H91.1357ZM99.3198 4.52C98.7598 4.52 98.3358 4.376 98.0478 4.088C97.7758 3.784 97.6718 3.384 97.7358 2.888C97.8318 2.376 98.0638 1.976 98.4318 1.688C98.8158 1.384 99.2878 1.232 99.8478 1.232C100.408 1.232 100.832 1.384 101.12 1.688C101.408 1.976 101.512 2.376 101.432 2.888C101.352 3.384 101.12 3.784 100.736 4.088C100.368 4.376 99.8958 4.52 99.3198 4.52ZM110.926 20.24C109.838 20.24 108.918 20.04 108.166 19.64C107.43 19.224 106.902 18.632 106.582 17.864C106.278 17.08 106.206 16.168 106.366 15.128L106.894 11.672C107.07 10.616 107.438 9.704 107.998 8.936C108.558 8.168 109.278 7.584 110.158 7.184C111.038 6.768 112.022 6.56 113.11 6.56C114.694 6.56 115.894 6.976 116.71 7.808C117.542 8.64 117.87 9.776 117.694 11.216H115.126C115.19 10.464 115.014 9.88 114.598 9.464C114.182 9.048 113.558 8.84 112.726 8.84C111.846 8.84 111.126 9.088 110.566 9.584C110.006 10.064 109.654 10.752 109.51 11.648L108.958 15.128C108.814 16.024 108.942 16.72 109.342 17.216C109.758 17.712 110.406 17.96 111.286 17.96C112.118 17.96 112.806 17.752 113.35 17.336C113.894 16.92 114.254 16.336 114.43 15.584H117.022C116.734 17.024 116.038 18.16 114.934 18.992C113.846 19.824 112.51 20.24 110.926 20.24ZM125.221 20.24C124.149 20.24 123.245 20.04 122.509 19.64C121.789 19.224 121.277 18.632 120.973 17.864C120.669 17.08 120.597 16.168 120.757 15.128L121.285 11.672C121.461 10.616 121.821 9.704 122.365 8.936C122.925 8.168 123.637 7.584 124.501 7.184C125.365 6.768 126.333 6.56 127.405 6.56C128.493 6.56 129.397 6.768 130.117 7.184C130.837 7.584 131.349 8.168 131.653 8.936C131.973 9.704 132.053 10.608 131.893 11.648L131.341 15.128C131.181 16.168 130.821 17.08 130.261 17.864C129.701 18.632 128.989 19.224 128.125 19.64C127.277 20.04 126.309 20.24 125.221 20.24ZM125.581 17.96C126.461 17.96 127.173 17.72 127.717 17.24C128.261 16.76 128.605 16.056 128.749 15.128L129.277 11.672C129.437 10.744 129.317 10.04 128.917 9.56C128.533 9.08 127.909 8.84 127.045 8.84C126.181 8.84 125.477 9.08 124.933 9.56C124.389 10.04 124.037 10.744 123.877 11.672L123.349 15.128C123.205 16.056 123.325 16.76 123.709 17.24C124.109 17.72 124.733 17.96 125.581 17.96ZM139.084 20.24C137.644 20.24 136.54 19.912 135.772 19.256C135.02 18.584 134.692 17.696 134.788 16.592H137.38C137.38 17.024 137.556 17.376 137.908 17.648C138.26 17.92 138.764 18.056 139.42 18.056H140.452C141.252 18.056 141.868 17.896 142.3 17.576C142.748 17.24 143.02 16.808 143.116 16.28C143.18 15.768 143.06 15.36 142.756 15.056C142.468 14.736 141.98 14.528 141.292 14.432L139.636 14.168C138.276 13.96 137.3 13.568 136.708 12.992C136.132 12.416 135.932 11.552 136.108 10.4C136.284 9.184 136.82 8.24 137.716 7.568C138.628 6.896 139.868 6.56 141.436 6.56H142.348C143.708 6.56 144.748 6.88 145.468 7.52C146.204 8.16 146.54 9.008 146.476 10.064H143.884C143.884 9.68 143.716 9.368 143.38 9.128C143.06 8.872 142.596 8.744 141.988 8.744H141.076C140.324 8.744 139.756 8.888 139.372 9.176C138.988 9.464 138.748 9.88 138.652 10.424C138.588 10.904 138.676 11.272 138.916 11.528C139.156 11.784 139.596 11.968 140.236 12.08L141.94 12.344C143.38 12.568 144.404 12.976 145.012 13.568C145.636 14.16 145.86 15.04 145.684 16.208C145.476 17.472 144.9 18.464 143.956 19.184C143.028 19.888 141.74 20.24 140.092 20.24H139.084Z"/>
</mask>
<path d="M10.192 20.24C9.104 20.24 8.184 20.04 7.432 19.64C6.696 19.224 6.168 18.632 5.848 17.864C5.544 17.08 5.472 16.168 5.632 15.128L6.856 7.352C7.032 6.296 7.4 5.384 7.96 4.616C8.52 3.848 9.232 3.264 10.096 2.864C10.976 2.448 11.96 2.24 13.048 2.24C14.136 2.24 15.04 2.448 15.76 2.864C16.496 3.28 17.024 3.872 17.344 4.64C17.68 5.392 17.76 6.296 17.584 7.352H14.992C15.152 6.44 15.024 5.744 14.608 5.264C14.208 4.784 13.568 4.544 12.688 4.544C11.808 4.544 11.08 4.784 10.504 5.264C9.944 5.744 9.592 6.432 9.448 7.328L8.224 15.128C8.08 16.024 8.216 16.72 8.632 17.216C9.048 17.712 9.688 17.96 10.552 17.96C11.432 17.96 12.152 17.712 12.712 17.216C13.272 16.72 13.624 16.024 13.768 15.128L14.08 13.16H10.816L11.176 10.88H17.032L16.36 15.128C16.2 16.168 15.84 17.072 15.28 17.84C14.72 18.608 14 19.2 13.12 19.616C12.256 20.032 11.28 20.24 10.192 20.24ZM24.4866 20.24C23.4146 20.24 22.5186 20.032 21.7986 19.616C21.0786 19.184 20.5586 18.584 20.2386 17.816C19.9346 17.048 19.8626 16.152 20.0226 15.128L20.5506 11.672C20.7266 10.632 21.0946 9.736 21.6546 8.984C22.2146 8.216 22.9186 7.624 23.7666 7.208C24.6306 6.776 25.5986 6.56 26.6706 6.56C27.7586 6.56 28.6626 6.776 29.3826 7.208C30.1026 7.624 30.6146 8.216 30.9186 8.984C31.2386 9.736 31.3106 10.632 31.1346 11.672L30.7746 14.024H22.6866L22.5186 15.128C22.3746 16.104 22.4946 16.848 22.8786 17.36C23.2626 17.872 23.9186 18.128 24.8466 18.128C25.5986 18.128 26.2146 18 26.6946 17.744C27.1906 17.472 27.5346 17.08 27.7266 16.568H30.2946C30.0546 17.32 29.6546 17.968 29.0946 18.512C28.5506 19.056 27.8786 19.48 27.0786 19.784C26.2946 20.088 25.4306 20.24 24.4866 20.24ZM28.5186 12.464L28.6386 11.648C28.7986 10.688 28.6866 9.944 28.3026 9.416C27.9346 8.888 27.2866 8.624 26.3586 8.624C25.4306 8.624 24.6866 8.888 24.1266 9.416C23.5826 9.944 23.2306 10.696 23.0706 11.672L22.9746 12.272L28.7346 12.248L28.5186 12.464ZM38.8773 20.24C37.8053 20.24 36.9013 20.04 36.1653 19.64C35.4453 19.224 34.9333 18.632 34.6293 17.864C34.3253 17.08 34.2533 16.168 34.4133 15.128L34.9413 11.672C35.1173 10.616 35.4773 9.704 36.0213 8.936C36.5813 8.168 37.2933 7.584 38.1573 7.184C39.0213 6.768 39.9893 6.56 41.0613 6.56C42.1493 6.56 43.0533 6.768 43.7733 7.184C44.4933 7.584 45.0053 8.168 45.3093 8.936C45.6293 9.704 45.7093 10.608 45.5493 11.648L44.9973 15.128C44.8373 16.168 44.4773 17.08 43.9173 17.864C43.3573 18.632 42.6453 19.224 41.7813 19.64C40.9333 20.04 39.9653 20.24 38.8773 20.24ZM39.2373 17.96C40.1173 17.96 40.8293 17.72 41.3733 17.24C41.9173 16.76 42.2613 16.056 42.4053 15.128L42.9333 11.672C43.0933 10.744 42.9733 10.04 42.5733 9.56C42.1893 9.08 41.5653 8.84 40.7013 8.84C39.8373 8.84 39.1333 9.08 38.5893 9.56C38.0453 10.04 37.6933 10.744 37.5333 11.672L37.0053 15.128C36.8613 16.056 36.9813 16.76 37.3653 17.24C37.7653 17.72 38.3893 17.96 39.2373 17.96ZM47.6999 20L50.4839 2.48H53.6279L54.4679 8.096C54.5479 8.624 54.6199 9.136 54.6839 9.632C54.7479 10.112 54.7879 10.472 54.8039 10.712C54.8999 10.472 55.0359 10.112 55.2119 9.632C55.4039 9.136 55.6279 8.624 55.8839 8.096L58.4759 2.48H61.7159L58.9319 20H56.4839L57.4199 14.096C57.5479 13.312 57.6999 12.464 57.8759 11.552C58.0679 10.624 58.2759 9.696 58.4999 8.768C58.7239 7.84 58.9399 6.952 59.1479 6.104C59.3719 5.256 59.5639 4.512 59.7239 3.872L55.8119 12.392H53.2919L51.9959 3.872C51.9799 4.496 51.9479 5.224 51.8999 6.056C51.8519 6.872 51.7879 7.744 51.7079 8.672C51.6279 9.6 51.5399 10.536 51.4439 11.48C51.3479 12.408 51.2279 13.28 51.0839 14.096L50.1479 20H47.6999ZM67.6585 20.24C66.5865 20.24 65.6905 20.032 64.9705 19.616C64.2505 19.184 63.7305 18.584 63.4105 17.816C63.1065 17.048 63.0345 16.152 63.1945 15.128L63.7225 11.672C63.8985 10.632 64.2665 9.736 64.8265 8.984C65.3865 8.216 66.0905 7.624 66.9385 7.208C67.8025 6.776 68.7705 6.56 69.8425 6.56C70.9305 6.56 71.8345 6.776 72.5545 7.208C73.2745 7.624 73.7865 8.216 74.0905 8.984C74.4105 9.736 74.4825 10.632 74.3065 11.672L73.9465 14.024H65.8585L65.6905 15.128C65.5465 16.104 65.6665 16.848 66.0505 17.36C66.4345 17.872 67.0905 18.128 68.0185 18.128C68.7705 18.128 69.3865 18 69.8665 17.744C70.3625 17.472 70.7065 17.08 70.8985 16.568H73.4665C73.2265 17.32 72.8265 17.968 72.2665 18.512C71.7225 19.056 71.0505 19.48 70.2505 19.784C69.4665 20.088 68.6025 20.24 67.6585 20.24ZM71.6905 12.464L71.8105 11.648C71.9705 10.688 71.8585 9.944 71.4745 9.416C71.1065 8.888 70.4585 8.624 69.5305 8.624C68.6025 8.624 67.8585 8.888 67.2985 9.416C66.7545 9.944 66.4025 10.696 66.2425 11.672L66.1465 12.272L71.9065 12.248L71.6905 12.464ZM81.1131 20.24C79.8011 20.24 78.8251 19.792 78.1851 18.896C77.5451 18 77.3451 16.792 77.5851 15.272L78.1611 11.552C78.3211 10.512 78.6411 9.624 79.1211 8.888C79.6011 8.152 80.1931 7.584 80.8971 7.184C81.6171 6.768 82.4171 6.56 83.2971 6.56C84.3851 6.56 85.2011 6.864 85.7451 7.472C86.3051 8.064 86.4971 8.88 86.3211 9.92L85.8651 9.32H86.4411L86.8731 6.248L87.4971 2.48H90.0651L87.2811 20H84.7371L85.1451 17.48H84.5931L85.2411 16.88C85.0651 17.92 84.6011 18.744 83.8491 19.352C83.1131 19.944 82.2011 20.24 81.1131 20.24ZM82.3851 17.984C83.2011 17.984 83.8811 17.736 84.4251 17.24C84.9851 16.728 85.3371 16.024 85.4811 15.128L86.0091 11.672C86.1691 10.776 86.0491 10.08 85.6491 9.584C85.2651 9.072 84.6571 8.816 83.8251 8.816C82.9771 8.816 82.2891 9.064 81.7611 9.56C81.2331 10.04 80.8891 10.744 80.7291 11.672L80.2011 15.128C80.0411 16.056 80.1531 16.768 80.5371 17.264C80.9211 17.744 81.5371 17.984 82.3851 17.984ZM91.1357 20L91.5198 17.648H96.1518L97.4958 9.152H93.4638L93.8238 6.8H100.376L98.6718 17.648H102.944L102.56 20H91.1357ZM99.3198 4.52C98.7598 4.52 98.3358 4.376 98.0478 4.088C97.7758 3.784 97.6718 3.384 97.7358 2.888C97.8318 2.376 98.0638 1.976 98.4318 1.688C98.8158 1.384 99.2878 1.232 99.8478 1.232C100.408 1.232 100.832 1.384 101.12 1.688C101.408 1.976 101.512 2.376 101.432 2.888C101.352 3.384 101.12 3.784 100.736 4.088C100.368 4.376 99.8958 4.52 99.3198 4.52ZM110.926 20.24C109.838 20.24 108.918 20.04 108.166 19.64C107.43 19.224 106.902 18.632 106.582 17.864C106.278 17.08 106.206 16.168 106.366 15.128L106.894 11.672C107.07 10.616 107.438 9.704 107.998 8.936C108.558 8.168 109.278 7.584 110.158 7.184C111.038 6.768 112.022 6.56 113.11 6.56C114.694 6.56 115.894 6.976 116.71 7.808C117.542 8.64 117.87 9.776 117.694 11.216H115.126C115.19 10.464 115.014 9.88 114.598 9.464C114.182 9.048 113.558 8.84 112.726 8.84C111.846 8.84 111.126 9.088 110.566 9.584C110.006 10.064 109.654 10.752 109.51 11.648L108.958 15.128C108.814 16.024 108.942 16.72 109.342 17.216C109.758 17.712 110.406 17.96 111.286 17.96C112.118 17.96 112.806 17.752 113.35 17.336C113.894 16.92 114.254 16.336 114.43 15.584H117.022C116.734 17.024 116.038 18.16 114.934 18.992C113.846 19.824 112.51 20.24 110.926 20.24ZM125.221 20.24C124.149 20.24 123.245 20.04 122.509 19.64C121.789 19.224 121.277 18.632 120.973 17.864C120.669 17.08 120.597 16.168 120.757 15.128L121.285 11.672C121.461 10.616 121.821 9.704 122.365 8.936C122.925 8.168 123.637 7.584 124.501 7.184C125.365 6.768 126.333 6.56 127.405 6.56C128.493 6.56 129.397 6.768 130.117 7.184C130.837 7.584 131.349 8.168 131.653 8.936C131.973 9.704 132.053 10.608 131.893 11.648L131.341 15.128C131.181 16.168 130.821 17.08 130.261 17.864C129.701 18.632 128.989 19.224 128.125 19.64C127.277 20.04 126.309 20.24 125.221 20.24ZM125.581 17.96C126.461 17.96 127.173 17.72 127.717 17.24C128.261 16.76 128.605 16.056 128.749 15.128L129.277 11.672C129.437 10.744 129.317 10.04 128.917 9.56C128.533 9.08 127.909 8.84 127.045 8.84C126.181 8.84 125.477 9.08 124.933 9.56C124.389 10.04 124.037 10.744 123.877 11.672L123.349 15.128C123.205 16.056 123.325 16.76 123.709 17.24C124.109 17.72 124.733 17.96 125.581 17.96ZM139.084 20.24C137.644 20.24 136.54 19.912 135.772 19.256C135.02 18.584 134.692 17.696 134.788 16.592H137.38C137.38 17.024 137.556 17.376 137.908 17.648C138.26 17.92 138.764 18.056 139.42 18.056H140.452C141.252 18.056 141.868 17.896 142.3 17.576C142.748 17.24 143.02 16.808 143.116 16.28C143.18 15.768 143.06 15.36 142.756 15.056C142.468 14.736 141.98 14.528 141.292 14.432L139.636 14.168C138.276 13.96 137.3 13.568 136.708 12.992C136.132 12.416 135.932 11.552 136.108 10.4C136.284 9.184 136.82 8.24 137.716 7.568C138.628 6.896 139.868 6.56 141.436 6.56H142.348C143.708 6.56 144.748 6.88 145.468 7.52C146.204 8.16 146.54 9.008 146.476 10.064H143.884C143.884 9.68 143.716 9.368 143.38 9.128C143.06 8.872 142.596 8.744 141.988 8.744H141.076C140.324 8.744 139.756 8.888 139.372 9.176C138.988 9.464 138.748 9.88 138.652 10.424C138.588 10.904 138.676 11.272 138.916 11.528C139.156 11.784 139.596 11.968 140.236 12.08L141.94 12.344C143.38 12.568 144.404 12.976 145.012 13.568C145.636 14.16 145.86 15.04 145.684 16.208C145.476 17.472 144.9 18.464 143.956 19.184C143.028 19.888 141.74 20.24 140.092 20.24H139.084Z" fill="#FF8102"/>
<path d="M7.432 19.64L6.93994 20.5106L6.95109 20.5169L6.96239 20.5229L7.432 19.64ZM5.848 17.864L4.91564 18.2255L4.92014 18.2371L4.92492 18.2486L5.848 17.864ZM5.632 15.128L4.64416 14.9725L4.64363 14.9759L5.632 15.128ZM6.856 7.352L5.86957 7.18759L5.86816 7.19651L6.856 7.352ZM10.096 2.864L10.5161 3.77149L10.5234 3.76807L10.096 2.864ZM15.76 2.864L15.2597 3.7299L15.2679 3.73456L15.76 2.864ZM17.344 4.64L16.4209 5.02462L16.4258 5.03634L16.431 5.04794L17.344 4.64ZM17.584 7.352V8.352H18.4311L18.5704 7.5164L17.584 7.352ZM14.992 7.352L14.007 7.1792L13.8013 8.352H14.992V7.352ZM14.608 5.264L13.8398 5.90418L13.846 5.91162L13.8523 5.91893L14.608 5.264ZM10.504 5.264L9.86375 4.4957L9.85321 4.50474L10.504 5.264ZM9.448 7.328L8.46066 7.16932L8.46009 7.17297L9.448 7.328ZM8.224 15.128L9.21134 15.2867L9.21191 15.283L8.224 15.128ZM8.632 17.216L7.86581 17.8586L7.86581 17.8586L8.632 17.216ZM12.712 17.216L12.049 16.4674L12.049 16.4674L12.712 17.216ZM13.768 15.128L14.7553 15.2867L14.7557 15.2846L13.768 15.128ZM14.08 13.16L15.0677 13.3166L15.251 12.16H14.08V13.16ZM10.816 13.16L9.82824 13.004L9.64572 14.16H10.816V13.16ZM11.176 10.88V9.88H10.3215L10.1882 10.724L11.176 10.88ZM17.032 10.88L18.0197 11.0362L18.2026 9.88H17.032V10.88ZM16.36 15.128L15.3723 14.9717L15.3716 14.9759L16.36 15.128ZM15.28 17.84L16.088 18.4292L16.088 18.4292L15.28 17.84ZM13.12 19.616L12.6926 18.7119L12.6862 18.715L13.12 19.616ZM10.192 19.24C9.22351 19.24 8.47444 19.0618 7.90161 18.7571L6.96239 20.5229C7.89356 21.0182 8.98449 21.24 10.192 21.24V19.24ZM7.92406 18.7694C7.37841 18.461 7.004 18.0384 6.77108 17.4794L4.92492 18.2486C5.332 19.2256 6.01359 19.987 6.93994 20.5106L7.92406 18.7694ZM6.78036 17.5025C6.55375 16.9181 6.4804 16.1899 6.62037 15.2801L4.64363 14.9759C4.4636 16.1461 4.53425 17.2419 4.91564 18.2255L6.78036 17.5025ZM6.61984 15.2835L7.84384 7.50749L5.86816 7.19651L4.64416 14.9725L6.61984 15.2835ZM7.84239 7.5164C7.99607 6.59437 8.31074 5.83229 8.76801 5.20517L7.15199 4.02683C6.48926 4.93571 6.06794 5.99763 5.86961 7.1876L7.84239 7.5164ZM8.76801 5.20517C9.22769 4.57476 9.80609 4.10018 10.5161 3.77147L9.67588 1.95653C8.65791 2.42781 7.81231 3.12124 7.15199 4.02683L8.76801 5.20517ZM10.5234 3.76807C11.2548 3.42232 12.0903 3.24 13.048 3.24V1.24C11.8297 1.24 10.6972 1.47368 9.66862 1.95993L10.5234 3.76807ZM13.048 3.24C14.0131 3.24 14.7317 3.42481 15.2597 3.72986L16.2603 1.99813C15.3483 1.47119 14.2589 1.24 13.048 1.24V3.24ZM15.2679 3.73456C15.8136 4.04297 16.188 4.46561 16.4209 5.02462L18.2671 4.25538C17.86 3.27839 17.1784 2.51703 16.2521 1.99344L15.2679 3.73456ZM16.431 5.04794C16.666 5.57386 16.7509 6.26802 16.5976 7.1876L18.5704 7.5164C18.7691 6.32398 18.694 5.21013 18.257 4.23206L16.431 5.04794ZM17.584 6.352H14.992V8.352H17.584V6.352ZM15.977 7.5248C16.1644 6.45666 16.0541 5.40572 15.3637 4.60907L13.8523 5.91893C13.9939 6.08228 14.1397 6.42334 14.007 7.1792L15.977 7.5248ZM15.3762 4.62382C14.7179 3.83385 13.7383 3.544 12.688 3.544V5.544C13.3977 5.544 13.6981 5.73415 13.8398 5.90418L15.3762 4.62382ZM12.688 3.544C11.6167 3.544 10.6498 3.84081 9.86382 4.49578L11.1442 6.03222C11.5102 5.72718 11.9993 5.544 12.688 5.544V3.544ZM9.85321 4.50474C9.07478 5.17196 8.63326 6.09541 8.46067 7.16932L10.4353 7.48668C10.5507 6.76859 10.8132 6.31603 11.1548 6.02326L9.85321 4.50474ZM8.46009 7.17297L7.23609 14.973L9.21191 15.283L10.4359 7.48303L8.46009 7.17297ZM7.23667 14.9693C7.06583 16.0323 7.1975 17.0618 7.86581 17.8586L9.39819 16.5734C9.2345 16.3782 9.09417 16.0157 9.21133 15.2867L7.23667 14.9693ZM7.86581 17.8586C8.53037 18.651 9.49751 18.96 10.552 18.96V16.96C9.8785 16.96 9.56563 16.773 9.39819 16.5734L7.86581 17.8586ZM10.552 18.96C11.6307 18.96 12.6007 18.6504 13.375 17.9646L12.049 16.4674C11.7033 16.7736 11.2333 16.96 10.552 16.96V18.96ZM13.375 17.9646C14.1428 17.2846 14.5828 16.3605 14.7553 15.2867L12.7807 14.9693C12.6652 15.6875 12.4012 16.1554 12.049 16.4674L13.375 17.9646ZM14.7557 15.2846L15.0677 13.3166L13.0923 13.0034L12.7803 14.9714L14.7557 15.2846ZM14.08 12.16H10.816V14.16H14.08V12.16ZM11.8038 13.316L12.1638 11.036L10.1882 10.724L9.82824 13.004L11.8038 13.316ZM11.176 11.88H17.032V9.88H11.176V11.88ZM16.0443 10.7238L15.3723 14.9718L17.3477 15.2842L18.0197 11.0362L16.0443 10.7238ZM15.3716 14.9759C15.2333 15.8751 14.9281 16.6254 14.472 17.2508L16.088 18.4292C16.7519 17.5186 17.1667 16.4609 17.3484 15.2801L15.3716 14.9759ZM14.472 17.2508C14.013 17.8803 13.4252 18.3656 12.6926 18.7119L13.5474 20.5201C14.5748 20.0344 15.427 19.3357 16.088 18.4292L14.472 17.2508ZM12.6862 18.715C11.9747 19.0576 11.1501 19.24 10.192 19.24V21.24C11.4099 21.24 12.5373 21.0064 13.5538 20.517L12.6862 18.715ZM21.7986 19.616L21.2841 20.4735L21.2912 20.4777L21.2983 20.4819L21.7986 19.616ZM20.2386 17.816L19.3088 18.184L19.3121 18.1924L19.3155 18.2006L20.2386 17.816ZM20.0226 15.128L21.0106 15.2824L21.0112 15.279L20.0226 15.128ZM20.5506 11.672L19.5646 11.5051L19.5633 11.513L19.5621 11.521L20.5506 11.672ZM21.6546 8.984L22.4567 9.5813L22.4626 9.57317L21.6546 8.984ZM23.7666 7.208L24.2071 8.10581L24.2138 8.10243L23.7666 7.208ZM29.3826 7.208L28.8681 8.06549L28.8752 8.06974L28.8823 8.07386L29.3826 7.208ZM30.9186 8.984L29.9888 9.35205L29.9935 9.36386L29.9985 9.37556L30.9186 8.984ZM31.1346 11.672L30.1486 11.5051L30.1473 11.5129L30.1461 11.5207L31.1346 11.672ZM30.7746 14.024V15.024H31.6332L31.7631 14.1753L30.7746 14.024ZM22.6866 14.024V13.024H21.8273L21.698 13.8736L22.6866 14.024ZM22.5186 15.128L21.53 14.9776L21.5293 14.982L22.5186 15.128ZM22.8786 17.36L23.6786 16.76L23.6786 16.76L22.8786 17.36ZM26.6946 17.744L27.1652 18.6264L27.1755 18.6208L26.6946 17.744ZM27.7266 16.568V15.568H27.0336L26.7903 16.2169L27.7266 16.568ZM30.2946 16.568L31.2473 16.872L31.6635 15.568H30.2946V16.568ZM29.0946 18.512L28.3978 17.7947L28.3926 17.7998L28.3875 17.8049L29.0946 18.512ZM27.0786 19.784L26.7234 18.8492L26.7171 18.8516L27.0786 19.784ZM28.5186 12.464L27.5293 12.3185L27.0898 15.3071L29.2257 13.1711L28.5186 12.464ZM28.6386 11.648L27.6522 11.4836L27.6507 11.493L27.6493 11.5025L28.6386 11.648ZM28.3026 9.416L27.4822 9.98779L27.488 9.99604L27.4939 10.0042L28.3026 9.416ZM24.1266 9.416L23.4406 8.68841L23.4353 8.69338L23.4301 8.69842L24.1266 9.416ZM23.0706 11.672L22.0838 11.5102L22.0832 11.514L23.0706 11.672ZM22.9746 12.272L21.9872 12.114L21.8011 13.2769L22.9788 13.272L22.9746 12.272ZM28.7346 12.248L29.4417 12.9551L31.1589 11.2379L28.7305 11.248L28.7346 12.248ZM24.4866 19.24C23.5406 19.24 22.8289 19.0564 22.2989 18.7501L21.2983 20.4819C22.2083 21.0076 23.2887 21.24 24.4866 21.24V19.24ZM22.3131 18.7585C21.7745 18.4353 21.3987 18.0002 21.1617 17.4314L19.3155 18.2006C19.7185 19.1678 20.3827 19.9327 21.2841 20.4735L22.3131 18.7585ZM21.1684 17.448C20.9448 16.8831 20.8712 16.1745 21.0106 15.2824L19.0346 14.9736C18.854 16.1295 18.9244 17.2129 19.3088 18.184L21.1684 17.448ZM21.0112 15.279L21.5392 11.823L19.5621 11.521L19.0341 14.977L21.0112 15.279ZM21.5366 11.8389C21.6895 10.9352 22.0024 10.1913 22.4567 9.58127L20.8526 8.38673C20.1868 9.28074 19.7637 10.3288 19.5646 11.5051L21.5366 11.8389ZM22.4626 9.57317C22.9276 8.9355 23.5058 8.44981 24.2071 8.10579L23.3262 6.31021C22.3315 6.79819 21.5016 7.4965 20.8466 8.39483L22.4626 9.57317ZM24.2138 8.10243C24.9243 7.74718 25.7366 7.56 26.6706 7.56V5.56C25.4606 5.56 24.3369 5.80482 23.3194 6.31357L24.2138 8.10243ZM26.6706 7.56C27.6299 7.56 28.3431 7.75049 28.8681 8.06549L29.8971 6.35051C28.9821 5.80151 27.8874 5.56 26.6706 5.56V7.56ZM28.8823 8.07386C29.4086 8.37791 29.7684 8.79519 29.9888 9.35205L31.8484 8.61595C31.4609 7.63681 30.7967 6.87009 29.8829 6.34213L28.8823 8.07386ZM29.9985 9.37556C30.2246 9.90707 30.3019 10.5996 30.1486 11.5051L32.1206 11.8389C32.3194 10.6644 32.2526 9.56493 31.8388 8.59244L29.9985 9.37556ZM30.1461 11.5207L29.7861 13.8727L31.7631 14.1753L32.1231 11.8233L30.1461 11.5207ZM30.7746 13.024H22.6866V15.024H30.7746V13.024ZM21.698 13.8736L21.53 14.9776L23.5072 15.2784L23.6752 14.1744L21.698 13.8736ZM21.5293 14.982C21.367 16.0821 21.466 17.1432 22.0786 17.96L23.6786 16.76C23.5232 16.5528 23.3822 16.1259 23.5079 15.274L21.5293 14.982ZM22.0786 17.96C22.7258 18.8229 23.7527 19.128 24.8466 19.128V17.128C24.0846 17.128 23.7995 16.9211 23.6786 16.76L22.0786 17.96ZM24.8466 19.128C25.7032 19.128 26.4957 18.9834 27.1652 18.6264L26.224 16.8616C25.9336 17.0166 25.494 17.128 24.8466 17.128V19.128ZM27.1755 18.6208C27.8734 18.2381 28.3838 17.6635 28.663 16.9191L26.7903 16.2169C26.6854 16.4965 26.5079 16.7059 26.2138 16.8672L27.1755 18.6208ZM27.7266 17.568H30.2946V15.568H27.7266V17.568ZM29.342 16.264C29.1514 16.8611 28.8385 17.3666 28.3978 17.7947L29.7914 19.2293C30.4707 18.5694 30.9579 17.7789 31.2473 16.872L29.342 16.264ZM28.3875 17.8049C27.9541 18.2383 27.4063 18.5897 26.7234 18.8492L27.4338 20.7188C28.351 20.3703 29.1471 19.8737 29.8017 19.2191L28.3875 17.8049ZM26.7171 18.8516C26.0617 19.1058 25.3221 19.24 24.4866 19.24V21.24C25.5392 21.24 26.5276 21.0702 27.4402 20.7164L26.7171 18.8516ZM29.508 12.6095L29.628 11.7935L27.6493 11.5025L27.5293 12.3185L29.508 12.6095ZM29.625 11.8124C29.8076 10.7168 29.7162 9.6595 29.1114 8.82783L27.4939 10.0042C27.657 10.2285 27.7896 10.6592 27.6522 11.4836L29.625 11.8124ZM29.123 8.84421C28.4945 7.94235 27.4595 7.624 26.3586 7.624V9.624C27.1138 9.624 27.3748 9.83365 27.4822 9.98779L29.123 8.84421ZM26.3586 7.624C25.2312 7.624 24.223 7.95072 23.4406 8.68841L24.8126 10.1436C25.1502 9.82528 25.6301 9.624 26.3586 9.624V7.624ZM23.4301 8.69842C22.6912 9.41559 22.2679 10.387 22.0838 11.5102L24.0575 11.8338C24.1933 11.005 24.474 10.4724 24.8231 10.1336L23.4301 8.69842ZM22.0832 11.514L21.9872 12.114L23.9621 12.43L24.0581 11.83L22.0832 11.514ZM22.9788 13.272L28.7388 13.248L28.7305 11.248L22.9705 11.272L22.9788 13.272ZM28.0275 11.5409L27.8115 11.7569L29.2257 13.1711L29.4417 12.9551L28.0275 11.5409ZM36.1653 19.64L35.665 20.5059L35.6763 20.5124L35.6877 20.5186L36.1653 19.64ZM34.6293 17.864L33.6969 18.2255L33.6994 18.232L34.6293 17.864ZM34.4133 15.128L35.4016 15.2801L35.4018 15.279L34.4133 15.128ZM34.9413 11.672L33.9548 11.5076L33.9527 11.521L34.9413 11.672ZM36.0213 8.936L35.2132 8.34677L35.2052 8.35798L36.0213 8.936ZM38.1573 7.184L38.5774 8.09147L38.5842 8.08829L38.5911 8.085L38.1573 7.184ZM43.7733 7.184L43.273 8.04986L43.2803 8.05407L43.2876 8.05816L43.7733 7.184ZM45.3093 8.936L44.3794 9.30405L44.3827 9.31236L44.3862 9.32062L45.3093 8.936ZM45.5493 11.648L46.5369 11.8047L46.5376 11.8001L45.5493 11.648ZM44.9973 15.128L44.0096 14.9713L44.0089 14.9759L44.9973 15.128ZM43.9173 17.864L44.7253 18.4532L44.731 18.4452L43.9173 17.864ZM41.7813 19.64L42.2079 20.5445L42.2151 20.541L41.7813 19.64ZM41.3733 17.24L42.0349 17.9898L42.0349 17.9898L41.3733 17.24ZM42.4053 15.128L43.3934 15.2813L43.3938 15.279L42.4053 15.128ZM42.9333 11.672L41.9478 11.5021L41.9462 11.5115L41.9447 11.521L42.9333 11.672ZM42.5733 9.56L41.7924 10.1847L41.7986 10.1925L41.805 10.2002L42.5733 9.56ZM37.5333 11.672L36.5478 11.5021L36.5462 11.5115L36.5447 11.521L37.5333 11.672ZM37.0053 15.128L37.9934 15.2813L37.9938 15.279L37.0053 15.128ZM37.3653 17.24L36.5844 17.8647L36.5906 17.8725L36.597 17.8802L37.3653 17.24ZM38.8773 19.24C37.9265 19.24 37.1968 19.0625 36.6428 18.7614L35.6877 20.5186C36.6057 21.0175 37.684 21.24 38.8773 21.24V19.24ZM36.6655 18.7741C36.1393 18.4701 35.7795 18.0528 35.5591 17.496L33.6994 18.232C34.087 19.2112 34.7512 19.9779 35.665 20.5059L36.6655 18.7741ZM35.5616 17.5025C35.335 16.9181 35.2616 16.1899 35.4016 15.2801L33.4249 14.9759C33.2449 16.1461 33.3155 17.2419 33.6969 18.2255L35.5616 17.5025ZM35.4018 15.279L35.9298 11.823L33.9527 11.521L33.4247 14.977L35.4018 15.279ZM35.9276 11.8364C36.0822 10.9088 36.3919 10.1428 36.8373 9.51402L35.2052 8.35798C34.5626 9.26517 34.1523 10.3232 33.9549 11.5076L35.9276 11.8364ZM36.8293 9.52517C37.2889 8.89476 37.8673 8.42018 38.5774 8.09147L37.7371 6.27653C36.7192 6.74781 35.8736 7.44124 35.2132 8.34683L36.8293 9.52517ZM38.5911 8.085C39.3045 7.74149 40.1216 7.56 41.0613 7.56V5.56C39.8569 5.56 38.738 5.79451 37.7234 6.283L38.5911 8.085ZM41.0613 7.56C42.0263 7.56 42.745 7.74481 43.273 8.04986L44.2735 6.31813C43.3615 5.79119 42.2722 5.56 41.0613 5.56V7.56ZM43.2876 8.05816C43.8049 8.34553 44.1603 8.75036 44.3794 9.30405L46.2391 8.56795C45.8502 7.58564 45.1816 6.82247 44.2589 6.30984L43.2876 8.05816ZM44.3862 9.32062C44.6191 9.87963 44.7003 10.5899 44.5609 11.4959L46.5376 11.8001C46.7182 10.6261 46.6394 9.52837 46.2323 8.55138L44.3862 9.32062ZM44.5616 11.4913L44.0096 14.9713L45.9849 15.2847L46.5369 11.8047L44.5616 11.4913ZM44.0089 14.9759C43.8705 15.8757 43.5643 16.6376 43.1035 17.2828L44.731 18.4452C45.3902 17.5224 45.804 16.4603 45.9856 15.2801L44.0089 14.9759ZM43.1092 17.2748C42.6473 17.9084 42.0643 18.3938 41.3474 18.739L42.2151 20.541C43.2262 20.0542 44.0672 19.3556 44.7253 18.4532L43.1092 17.2748ZM41.3546 18.7356C40.6598 19.0633 39.8413 19.24 38.8773 19.24V21.24C40.0892 21.24 41.2067 21.0167 42.2079 20.5444L41.3546 18.7356ZM39.2373 18.96C40.3066 18.96 41.2712 18.6637 42.0349 17.9898L40.7116 16.4902C40.3873 16.7763 39.9279 16.96 39.2373 16.96V18.96ZM42.0349 17.9898C42.8002 17.3146 43.2243 16.3711 43.3934 15.2813L41.4171 14.9747C41.2982 15.7409 41.0343 16.2054 40.7116 16.4902L42.0349 17.9898ZM43.3938 15.279L43.9218 11.823L41.9447 11.521L41.4167 14.977L43.3938 15.279ZM43.9187 11.8419C44.1029 10.7733 44.0077 9.71934 43.3415 8.91981L41.805 10.2002C41.9388 10.3607 42.0836 10.7147 41.9478 11.5021L43.9187 11.8419ZM43.3541 8.9353C42.712 8.13264 41.7395 7.84 40.7013 7.84V9.84C41.391 9.84 41.6665 10.0274 41.7924 10.1847L43.3541 8.9353ZM40.7013 7.84C39.6426 7.84 38.688 8.13925 37.9276 8.81016L39.2509 10.3098C39.5785 10.0207 40.0319 9.84 40.7013 9.84V7.84ZM37.9276 8.81016C37.1675 9.48082 36.7348 10.4172 36.5478 11.5021L38.5187 11.8419C38.6517 11.0708 38.923 10.5992 39.2509 10.3098L37.9276 8.81016ZM36.5447 11.521L36.0167 14.977L37.9938 15.279L38.5218 11.823L36.5447 11.521ZM36.0171 14.9747C35.8527 16.0343 35.9508 17.0727 36.5844 17.8647L38.1461 16.6153C38.0117 16.4473 37.8698 16.0777 37.9934 15.2813L36.0171 14.9747ZM36.597 17.8802C37.2487 18.6622 38.2046 18.96 39.2373 18.96V16.96C38.5739 16.96 38.2818 16.7778 38.1335 16.5998L36.597 17.8802ZM47.6999 20L46.7123 19.8431L46.5284 21H47.6999V20ZM50.4839 2.48V1.48H49.6302L49.4963 2.32306L50.4839 2.48ZM53.6279 2.48L54.6169 2.33207L54.4894 1.48H53.6279V2.48ZM54.4679 8.096L53.4789 8.24393L53.4792 8.2458L54.4679 8.096ZM54.6839 9.632L53.6921 9.75997L53.6926 9.76416L54.6839 9.632ZM54.8039 10.712L53.8061 10.7785L55.7324 11.0834L54.8039 10.712ZM55.2119 9.632L54.2793 9.27101L54.2761 9.27935L54.273 9.28774L55.2119 9.632ZM55.8839 8.096L56.7837 8.53227L56.7878 8.5237L56.7918 8.51506L55.8839 8.096ZM58.4759 2.48V1.48H57.836L57.5679 2.06094L58.4759 2.48ZM61.7159 2.48L62.7035 2.63693L62.8873 1.48H61.7159V2.48ZM58.9319 20V21H59.7855L59.9195 20.1569L58.9319 20ZM56.4839 20L55.4962 19.8434L55.3128 21H56.4839V20ZM57.4199 14.096L56.4329 13.9349L56.4322 13.9394L57.4199 14.096ZM57.8759 11.552L56.8965 11.3494L56.894 11.3625L57.8759 11.552ZM59.1479 6.104L58.181 5.84861L58.1788 5.85717L58.1767 5.86578L59.1479 6.104ZM59.7239 3.872L60.694 4.11453L58.8151 3.45473L59.7239 3.872ZM55.8119 12.392V13.392H56.4531L56.7207 12.8093L55.8119 12.392ZM53.2919 12.392L52.3032 12.5424L52.4325 13.392H53.2919V12.392ZM51.9959 3.872L52.9845 3.72162L50.9962 3.84637L51.9959 3.872ZM51.8999 6.056L52.8982 6.11472L52.8982 6.1136L51.8999 6.056ZM51.4439 11.48L52.4386 11.5829L52.4387 11.5812L51.4439 11.48ZM51.0839 14.096L50.0991 13.9222L50.0976 13.9308L50.0962 13.9394L51.0839 14.096ZM50.1479 20V21H51.0018L51.1355 20.1566L50.1479 20ZM48.6875 20.1569L51.4715 2.63693L49.4963 2.32306L46.7123 19.8431L48.6875 20.1569ZM50.4839 3.48H53.6279V1.48H50.4839V3.48ZM52.6389 2.62793L53.4789 8.24393L55.4569 7.94807L54.6169 2.33207L52.6389 2.62793ZM53.4792 8.2458C53.5581 8.76702 53.6291 9.27173 53.6921 9.75997L55.6757 9.50403C55.6107 9.00027 55.5376 8.48098 55.4566 7.94619L53.4792 8.2458ZM53.6926 9.76416C53.756 10.2395 53.7924 10.5728 53.8061 10.7785L55.8017 10.6455C55.7834 10.3712 55.7397 9.9845 55.6751 9.49984L53.6926 9.76416ZM55.7324 11.0834C55.8339 10.8295 55.974 10.4584 56.1508 9.97625L54.273 9.28774C54.0978 9.7656 53.9658 10.1145 53.8754 10.3406L55.7324 11.0834ZM56.1444 9.99299C56.3256 9.52497 56.5384 9.03812 56.7837 8.53227L54.9841 7.65973C54.7173 8.20988 54.4821 8.74703 54.2793 9.27101L56.1444 9.99299ZM56.7918 8.51506L59.3838 2.89906L57.5679 2.06094L54.9759 7.67694L56.7918 8.51506ZM58.4759 3.48H61.7159V1.48H58.4759V3.48ZM60.7283 2.32306L57.9443 19.8431L59.9195 20.1569L62.7035 2.63693L60.7283 2.32306ZM58.9319 19H56.4839V21H58.9319V19ZM57.4715 20.1566L58.4075 14.2526L56.4322 13.9394L55.4962 19.8434L57.4715 20.1566ZM58.4068 14.2571C58.533 13.484 58.6833 12.6456 58.8578 11.7415L56.894 11.3625C56.7165 12.2824 56.5627 13.14 56.4329 13.9349L58.4068 14.2571ZM58.8551 11.7546C59.0449 10.8374 59.2505 9.92008 59.472 9.00264L57.5278 8.53336C57.3012 9.47192 57.0908 10.4106 56.8966 11.3494L58.8551 11.7546ZM59.472 9.00264C59.6957 8.07573 59.9114 7.18892 60.1191 6.34222L58.1767 5.86578C57.9683 6.71508 57.7521 7.60427 57.5278 8.53336L59.472 9.00264ZM60.1147 6.35939C60.3395 5.50841 60.5327 4.75996 60.694 4.11453L58.7537 3.62946C58.5951 4.26404 58.4042 5.00359 58.181 5.84861L60.1147 6.35939ZM58.8151 3.45473L54.9031 11.9747L56.7207 12.8093L60.6327 4.28927L58.8151 3.45473ZM55.8119 11.392H53.2919V13.392H55.8119V11.392ZM54.2805 12.2416L52.9845 3.72162L51.0072 4.02238L52.3032 12.5424L54.2805 12.2416ZM50.9962 3.84637C50.9805 4.45686 50.9491 5.17377 50.9015 5.9984L52.8982 6.1136C52.9466 5.27422 52.9792 4.53513 52.9955 3.89763L50.9962 3.84637ZM50.9016 5.99728C50.8542 6.80307 50.7909 7.66594 50.7116 8.58611L52.7042 8.75789C52.7849 7.82206 52.8495 6.94093 52.8981 6.11472L50.9016 5.99728ZM50.7116 8.58611C50.632 9.50892 50.5445 10.4398 50.449 11.3788L52.4387 11.5812C52.5353 10.6322 52.6237 9.69108 52.7042 8.75789L50.7116 8.58611ZM50.4492 11.3771C50.3553 12.2843 50.2385 13.1324 50.0991 13.9222L52.0687 14.2698C52.2173 13.4276 52.3404 12.5317 52.4386 11.5829L50.4492 11.3771ZM50.0962 13.9394L49.1602 19.8434L51.1355 20.1566L52.0715 14.2526L50.0962 13.9394ZM50.1479 19H47.6999V21H50.1479V19ZM64.9705 19.616L64.456 20.4735L64.4631 20.4777L64.4702 20.4819L64.9705 19.616ZM63.4105 17.816L62.4807 18.184L62.484 18.1924L62.4874 18.2006L63.4105 17.816ZM63.1945 15.128L64.1825 15.2824L64.183 15.279L63.1945 15.128ZM63.7225 11.672L62.7365 11.5051L62.7352 11.513L62.734 11.521L63.7225 11.672ZM64.8265 8.984L65.6286 9.5813L65.6345 9.57317L64.8265 8.984ZM66.9385 7.208L67.3789 8.10581L67.3857 8.10243L66.9385 7.208ZM72.5545 7.208L72.04 8.06549L72.0471 8.06974L72.0542 8.07386L72.5545 7.208ZM74.0905 8.984L73.1607 9.35205L73.1654 9.36386L73.1703 9.37556L74.0905 8.984ZM74.3065 11.672L73.3205 11.5051L73.3192 11.5129L73.318 11.5207L74.3065 11.672ZM73.9465 14.024V15.024H74.8051L74.935 14.1753L73.9465 14.024ZM65.8585 14.024V13.024H64.9992L64.8699 13.8736L65.8585 14.024ZM65.6905 15.128L64.7019 14.9776L64.7012 14.982L65.6905 15.128ZM66.0505 17.36L66.8505 16.76L66.8505 16.76L66.0505 17.36ZM69.8665 17.744L70.3371 18.6264L70.3473 18.6208L69.8665 17.744ZM70.8985 16.568V15.568H70.2055L69.9622 16.2169L70.8985 16.568ZM73.4665 16.568L74.4192 16.872L74.8353 15.568H73.4665V16.568ZM72.2665 18.512L71.5697 17.7947L71.5645 17.7998L71.5594 17.8049L72.2665 18.512ZM70.2505 19.784L69.8953 18.8492L69.889 18.8516L70.2505 19.784ZM71.6905 12.464L70.7011 12.3185L70.2616 15.3071L72.3976 13.1711L71.6905 12.464ZM71.8105 11.648L70.8241 11.4836L70.8225 11.493L70.8211 11.5025L71.8105 11.648ZM71.4745 9.416L70.6541 9.98779L70.6599 9.99604L70.6658 10.0042L71.4745 9.416ZM67.2985 9.416L66.6125 8.68841L66.6072 8.69338L66.602 8.69842L67.2985 9.416ZM66.2425 11.672L65.2557 11.5102L65.2551 11.514L66.2425 11.672ZM66.1465 12.272L65.1591 12.114L64.973 13.2769L66.1507 13.272L66.1465 12.272ZM71.9065 12.248L72.6136 12.9551L74.3308 11.2379L71.9023 11.248L71.9065 12.248ZM67.6585 19.24C66.7125 19.24 66.0008 19.0564 65.4708 18.7501L64.4702 20.4819C65.3802 21.0076 66.4605 21.24 67.6585 21.24V19.24ZM65.485 18.7585C64.9464 18.4353 64.5706 18.0002 64.3336 17.4314L62.4874 18.2006C62.8904 19.1678 63.5546 19.9327 64.456 20.4735L65.485 18.7585ZM64.3403 17.448C64.1167 16.8831 64.0431 16.1745 64.1825 15.2824L62.2065 14.9736C62.0259 16.1295 62.0963 17.2129 62.4807 18.184L64.3403 17.448ZM64.183 15.279L64.711 11.823L62.734 11.521L62.206 14.977L64.183 15.279ZM64.7085 11.8389C64.8614 10.9352 65.1743 10.1913 65.6285 9.58127L64.0245 8.38673C63.3587 9.28074 62.9356 10.3288 62.7365 11.5051L64.7085 11.8389ZM65.6345 9.57317C66.0995 8.9355 66.6776 8.44981 67.3789 8.10579L66.4981 6.31021C65.5034 6.79819 64.6735 7.4965 64.0185 8.39483L65.6345 9.57317ZM67.3857 8.10243C68.0962 7.74718 68.9085 7.56 69.8425 7.56V5.56C68.6325 5.56 67.5088 5.80482 66.4913 6.31357L67.3857 8.10243ZM69.8425 7.56C70.8018 7.56 71.515 7.75049 72.04 8.06549L73.069 6.35051C72.154 5.80151 71.0592 5.56 69.8425 5.56V7.56ZM72.0542 8.07386C72.5805 8.37791 72.9403 8.79519 73.1607 9.35205L75.0203 8.61595C74.6327 7.63681 73.9685 6.87009 73.0548 6.34213L72.0542 8.07386ZM73.1703 9.37556C73.3965 9.90707 73.4738 10.5996 73.3205 11.5051L75.2925 11.8389C75.4912 10.6644 75.4245 9.56493 75.0107 8.59244L73.1703 9.37556ZM73.318 11.5207L72.958 13.8727L74.935 14.1753L75.295 11.8233L73.318 11.5207ZM73.9465 13.024H65.8585V15.024H73.9465V13.024ZM64.8699 13.8736L64.7019 14.9776L66.6791 15.2784L66.8471 14.1744L64.8699 13.8736ZM64.7012 14.982C64.5389 16.0821 64.6379 17.1432 65.2505 17.96L66.8505 16.76C66.6951 16.5528 66.5541 16.1259 66.6798 15.274L64.7012 14.982ZM65.2505 17.96C65.8977 18.8229 66.9246 19.128 68.0185 19.128V17.128C67.2564 17.128 66.9713 16.9211 66.8505 16.76L65.2505 17.96ZM68.0185 19.128C68.8751 19.128 69.6675 18.9834 70.3371 18.6264L69.3959 16.8616C69.1055 17.0166 68.6659 17.128 68.0185 17.128V19.128ZM70.3473 18.6208C71.0453 18.2381 71.5557 17.6635 71.8348 16.9191L69.9622 16.2169C69.8573 16.4965 69.6797 16.7059 69.3857 16.8672L70.3473 18.6208ZM70.8985 17.568H73.4665V15.568H70.8985V17.568ZM72.5138 16.264C72.3233 16.8611 72.0104 17.3666 71.5697 17.7947L72.9633 19.2293C73.6426 18.5694 74.1297 17.7789 74.4192 16.872L72.5138 16.264ZM71.5594 17.8049C71.126 18.2383 70.5781 18.5897 69.8953 18.8492L70.6057 20.7188C71.5229 20.3703 72.319 19.8737 72.9736 19.2191L71.5594 17.8049ZM69.889 18.8516C69.2335 19.1058 68.4939 19.24 67.6585 19.24V21.24C68.7111 21.24 69.6995 21.0702 70.612 20.7164L69.889 18.8516ZM72.6799 12.6095L72.7999 11.7935L70.8211 11.5025L70.7011 12.3185L72.6799 12.6095ZM72.7969 11.8124C72.9795 10.7168 72.8881 9.6595 72.2832 8.82783L70.6658 10.0042C70.8289 10.2285 70.9615 10.6592 70.8241 11.4836L72.7969 11.8124ZM72.2949 8.84421C71.6663 7.94235 70.6313 7.624 69.5305 7.624V9.624C70.2857 9.624 70.5467 9.83365 70.6541 9.98779L72.2949 8.84421ZM69.5305 7.624C68.403 7.624 67.3949 7.95072 66.6125 8.68841L67.9845 10.1436C68.3221 9.82528 68.802 9.624 69.5305 9.624V7.624ZM66.602 8.69842C65.8631 9.41559 65.4398 10.387 65.2557 11.5102L67.2293 11.8338C67.3652 11.005 67.6459 10.4724 67.995 10.1336L66.602 8.69842ZM65.2551 11.514L65.1591 12.114L67.1339 12.43L67.2299 11.83L65.2551 11.514ZM66.1507 13.272L71.9107 13.248L71.9023 11.248L66.1423 11.272L66.1507 13.272ZM71.1994 11.5409L70.9834 11.7569L72.3976 13.1711L72.6136 12.9551L71.1994 11.5409ZM78.1851 18.896L78.9989 18.3148L78.9989 18.3148L78.1851 18.896ZM77.5851 15.272L78.5729 15.428L78.5733 15.425L77.5851 15.272ZM78.1611 11.552L79.1493 11.705L79.1495 11.7041L78.1611 11.552ZM79.1211 8.888L78.2835 8.34173L78.2835 8.34173L79.1211 8.888ZM80.8971 7.184L81.3911 8.05348L81.3974 8.04986L80.8971 7.184ZM85.7451 7.472L84.9999 8.13879L85.0091 8.14913L85.0187 8.1592L85.7451 7.472ZM86.3211 9.92L85.525 10.5251L86.9219 12.3631L87.3071 10.0869L86.3211 9.92ZM85.8651 9.32V8.32H83.8491L85.069 9.92508L85.8651 9.32ZM86.4411 9.32V10.32H87.3103L87.4314 9.45925L86.4411 9.32ZM86.8731 6.248L85.8866 6.08462L85.8846 6.09666L85.8829 6.10874L86.8731 6.248ZM87.4971 2.48V1.48H86.6491L86.5106 2.31662L87.4971 2.48ZM90.0651 2.48L91.0527 2.63693L91.2366 1.48H90.0651V2.48ZM87.2811 20V21H88.1348L88.2687 20.1569L87.2811 20ZM84.7371 20L83.75 19.8402L83.5622 21H84.7371V20ZM85.1451 17.48L86.1323 17.6398L86.3201 16.48H85.1451V17.48ZM84.5931 17.48L83.9137 16.7462L82.0413 18.48H84.5931V17.48ZM85.2411 16.88L86.2271 17.0469L86.7173 14.1503L84.5617 16.1462L85.2411 16.88ZM83.8491 19.352L84.4759 20.1312L84.4778 20.1296L83.8491 19.352ZM84.4251 17.24L85.0989 17.979L85.0999 17.978L84.4251 17.24ZM85.4811 15.128L86.4685 15.2867L86.4697 15.279L85.4811 15.128ZM86.0091 11.672L85.0247 11.4962L85.0225 11.5086L85.0206 11.521L86.0091 11.672ZM85.6491 9.584L84.8491 10.184L84.8597 10.1981L84.8707 10.2118L85.6491 9.584ZM81.7611 9.56L82.4338 10.2999L82.4398 10.2944L82.4458 10.2888L81.7611 9.56ZM80.7291 11.672L79.7437 11.5021L79.742 11.5115L79.7406 11.521L80.7291 11.672ZM80.2011 15.128L81.1866 15.2979L81.1882 15.2885L81.1897 15.279L80.2011 15.128ZM80.5371 17.264L79.7464 17.8762L79.7513 17.8825L79.7563 17.8887L80.5371 17.264ZM81.1131 19.24C80.0538 19.24 79.4137 18.8955 78.9989 18.3148L77.3714 19.4772C78.2366 20.6885 79.5485 21.24 81.1131 21.24V19.24ZM78.9989 18.3148C78.5633 17.705 78.3573 16.7932 78.5729 15.428L76.5974 15.116C76.3329 16.7908 76.527 18.295 77.3714 19.4772L78.9989 18.3148ZM78.5733 15.425L79.1493 11.705L77.1729 11.399L76.5969 15.119L78.5733 15.425ZM79.1495 11.7041C79.2921 10.7774 79.5703 10.0299 79.9587 9.43427L78.2835 8.34173C77.712 9.21808 77.3502 10.2466 77.1728 11.3999L79.1495 11.7041ZM79.9587 9.43427C80.3592 8.82023 80.8374 8.36808 81.3911 8.05346L80.4031 6.31454C79.5489 6.79992 78.8431 7.48377 78.2835 8.34173L79.9587 9.43427ZM81.3974 8.04986C81.9564 7.7269 82.5821 7.56 83.2971 7.56V5.56C82.2521 5.56 81.2779 5.80909 80.3968 6.31813L81.3974 8.04986ZM83.2971 7.56C84.2004 7.56 84.7033 7.80729 84.9999 8.13879L86.4904 6.8052C85.699 5.92071 84.5698 5.56 83.2971 5.56V7.56ZM85.0187 8.1592C85.3017 8.45836 85.4756 8.92296 85.3351 9.75314L87.3071 10.0869C87.5186 8.83704 87.3086 7.66963 86.4716 6.7848L85.0187 8.1592ZM87.1173 9.31492L86.6613 8.71492L85.069 9.92508L85.525 10.5251L87.1173 9.31492ZM85.8651 10.32H86.4411V8.32H85.8651V10.32ZM87.4314 9.45925L87.8634 6.38725L85.8829 6.10874L85.4509 9.18074L87.4314 9.45925ZM87.8597 6.41138L88.4837 2.64338L86.5106 2.31662L85.8866 6.08462L87.8597 6.41138ZM87.4971 3.48H90.0651V1.48H87.4971V3.48ZM89.0775 2.32306L86.2935 19.8431L88.2687 20.1569L91.0527 2.63693L89.0775 2.32306ZM87.2811 19H84.7371V21H87.2811V19ZM85.7243 20.1598L86.1323 17.6398L84.158 17.3202L83.75 19.8402L85.7243 20.1598ZM85.1451 16.48H84.5931V18.48H85.1451V16.48ZM85.2725 18.2138L85.9205 17.6138L84.5617 16.1462L83.9137 16.7462L85.2725 18.2138ZM84.2551 16.7131C84.1158 17.5364 83.7651 18.134 83.2204 18.5744L84.4778 20.1296C85.4372 19.354 86.0144 18.3036 86.2271 17.0469L84.2551 16.7131ZM83.2224 18.5728C82.6904 19.0007 82.0095 19.24 81.1131 19.24V21.24C82.3927 21.24 83.5358 20.8873 84.4759 20.1312L83.2224 18.5728ZM82.3851 18.984C83.4212 18.984 84.3502 18.6616 85.0989 17.979L83.7514 16.501C83.4121 16.8104 82.9811 16.984 82.3851 16.984V18.984ZM85.0999 17.978C85.8574 17.2854 86.2959 16.3603 86.4685 15.2867L84.4938 14.9693C84.3783 15.6877 84.1128 16.1706 83.7504 16.502L85.0999 17.978ZM86.4697 15.279L86.9977 11.823L85.0206 11.521L84.4926 14.977L86.4697 15.279ZM86.9936 11.8478C87.182 10.7926 87.0765 9.76101 86.4275 8.95625L84.8707 10.2118C85.0217 10.399 85.1563 10.7594 85.0247 11.4962L86.9936 11.8478ZM86.4491 8.984C85.8219 8.14764 84.8685 7.816 83.8251 7.816V9.816C84.4457 9.816 84.7084 9.99636 84.8491 10.184L86.4491 8.984ZM83.8251 7.816C82.7691 7.816 81.8211 8.13162 81.0764 8.83115L82.4458 10.2888C82.7571 9.99638 83.1852 9.816 83.8251 9.816V7.816ZM81.0885 8.82006C80.3496 9.49172 79.9294 10.4248 79.7437 11.5021L81.7146 11.8419C81.8488 11.0632 82.1166 10.5883 82.4338 10.2999L81.0885 8.82006ZM79.7406 11.521L79.2126 14.977L81.1897 15.279L81.7177 11.823L79.7406 11.521ZM79.2157 14.9581C79.0319 16.0237 79.1201 17.0672 79.7464 17.8762L81.3278 16.6518C81.1861 16.4688 81.0503 16.0883 81.1866 15.2979L79.2157 14.9581ZM79.7563 17.8887C80.395 18.6872 81.3554 18.984 82.3851 18.984V16.984C81.7188 16.984 81.4472 16.8008 81.318 16.6393L79.7563 17.8887ZM91.1357 20L90.1488 19.8389L89.9592 21H91.1357V20ZM91.5198 17.648V16.648H90.6698L90.5328 17.4869L91.5198 17.648ZM96.1518 17.648V18.648H97.006L97.1395 17.8042L96.1518 17.648ZM97.4958 9.152L98.4835 9.30825L98.6664 8.152H97.4958V9.152ZM93.4638 9.152L92.4753 9.0007L92.299 10.152H93.4638V9.152ZM93.8238 6.8V5.8H92.9652L92.8353 6.6487L93.8238 6.8ZM100.376 6.8L101.364 6.95518L101.545 5.8H100.376V6.8ZM98.6718 17.648L97.6839 17.4928L97.5024 18.648H98.6718V17.648ZM102.944 17.648L103.931 17.8091L104.12 16.648H102.944V17.648ZM102.56 20V21H103.41L103.547 20.1611L102.56 20ZM98.0478 4.088L97.3025 4.75479L97.321 4.77548L97.3406 4.79511L98.0478 4.088ZM97.7358 2.888L96.7529 2.70371L96.7476 2.73174L96.744 2.76003L97.7358 2.888ZM98.4318 1.688L99.0481 2.47552L99.0525 2.47204L98.4318 1.688ZM101.12 1.688L100.394 2.37574L100.403 2.38555L100.413 2.39511L101.12 1.688ZM101.432 2.888L102.419 3.04723L102.42 3.04238L101.432 2.888ZM100.736 4.088L101.352 4.87552L101.356 4.87204L100.736 4.088ZM92.1227 20.1611L92.5067 17.8091L90.5328 17.4869L90.1488 19.8389L92.1227 20.1611ZM91.5198 18.648H96.1518V16.648H91.5198V18.648ZM97.1395 17.8042L98.4835 9.30825L96.508 8.99575L95.164 17.4918L97.1395 17.8042ZM97.4958 8.152H93.4638V10.152H97.4958V8.152ZM94.4522 9.3033L94.8122 6.9513L92.8353 6.6487L92.4753 9.0007L94.4522 9.3033ZM93.8238 7.8H100.376V5.8H93.8238V7.8ZM99.3879 6.64482L97.6839 17.4928L99.6596 17.8032L101.364 6.95518L99.3879 6.64482ZM98.6718 18.648H102.944V16.648H98.6718V18.648ZM101.957 17.4869L101.573 19.8389L103.547 20.1611L103.931 17.8091L101.957 17.4869ZM102.56 19H91.1357V21H102.56V19ZM99.3198 3.52C98.9234 3.52 98.794 3.42002 98.7549 3.38089L97.3406 4.79511C97.8775 5.33198 98.5961 5.52 99.3198 5.52V3.52ZM98.793 3.4212C98.7578 3.38187 98.6916 3.29472 98.7275 3.01597L96.744 2.76003C96.6519 3.47328 96.7937 4.18613 97.3025 4.75479L98.793 3.4212ZM98.7186 3.07229C98.7753 2.76979 98.8938 2.59619 99.0481 2.47551L97.8154 0.900494C97.2337 1.35581 96.8882 1.9822 96.7529 2.70371L98.7186 3.07229ZM99.0525 2.47204C99.2349 2.32761 99.4791 2.232 99.8478 2.232V0.231998C99.0964 0.231998 98.3966 0.440386 97.811 0.903955L99.0525 2.47204ZM99.8478 2.232C100.23 2.232 100.352 2.33166 100.394 2.37574L101.846 1.00026C101.311 0.436343 100.586 0.231998 99.8478 0.231998V2.232ZM100.413 2.39511C100.429 2.41126 100.438 2.42529 100.446 2.45563C100.456 2.49403 100.468 2.57969 100.444 2.73362L102.42 3.04238C102.534 2.31005 102.401 1.55517 101.827 0.980892L100.413 2.39511ZM100.445 2.72877C100.403 2.98504 100.298 3.15947 100.115 3.30395L101.356 4.87204C101.942 4.40853 102.3 3.78295 102.419 3.04723L100.445 2.72877ZM100.119 3.30049C99.9652 3.42123 99.7256 3.52 99.3198 3.52V5.52C100.066 5.52 100.77 5.33077 101.352 4.8755L100.119 3.30049ZM108.166 19.64L107.674 20.5106L107.685 20.5169L107.697 20.5229L108.166 19.64ZM106.582 17.864L105.65 18.2255L105.655 18.2371L105.659 18.2486L106.582 17.864ZM106.366 15.128L107.355 15.2801L107.355 15.279L106.366 15.128ZM106.894 11.672L105.908 11.5076L105.906 11.521L106.894 11.672ZM107.998 8.936L107.19 8.34683L107.19 8.34683L107.998 8.936ZM110.158 7.184L110.572 8.09437L110.579 8.09127L110.586 8.08807L110.158 7.184ZM116.71 7.808L115.996 8.50824L116.003 8.51511L116.71 7.808ZM117.694 11.216V12.216H118.58L118.687 11.3373L117.694 11.216ZM115.126 11.216L114.13 11.1312L114.038 12.216H115.126V11.216ZM114.598 9.464L113.891 10.1711L113.891 10.1711L114.598 9.464ZM110.566 9.584L111.217 10.3433L111.223 10.338L111.229 10.3326L110.566 9.584ZM109.51 11.648L108.523 11.4893L108.523 11.4913L109.51 11.648ZM108.958 15.128L109.946 15.2867L109.946 15.2847L108.958 15.128ZM109.342 17.216L108.564 17.8438L108.57 17.8512L108.576 17.8586L109.342 17.216ZM113.35 17.336L113.958 18.1304L113.958 18.1304L113.35 17.336ZM114.43 15.584V14.584H113.637L113.457 15.3561L114.43 15.584ZM117.022 15.584L118.003 15.7801L118.242 14.584H117.022V15.584ZM114.934 18.992L114.333 18.1934L114.327 18.1976L114.934 18.992ZM110.926 19.24C109.958 19.24 109.209 19.0618 108.636 18.7571L107.697 20.5229C108.628 21.0182 109.719 21.24 110.926 21.24V19.24ZM108.658 18.7694C108.113 18.461 107.738 18.0384 107.505 17.4794L105.659 18.2486C106.066 19.2256 106.748 19.987 107.674 20.5106L108.658 18.7694ZM107.515 17.5025C107.288 16.9181 107.215 16.1899 107.355 15.2801L105.378 14.9759C105.198 16.1461 105.269 17.2419 105.65 18.2255L107.515 17.5025ZM107.355 15.279L107.883 11.823L105.906 11.521L105.378 14.977L107.355 15.279ZM107.881 11.8364C108.034 10.9144 108.349 10.1523 108.806 9.52517L107.19 8.34683C106.528 9.25571 106.106 10.3176 105.908 11.5076L107.881 11.8364ZM108.806 9.52517C109.263 8.89887 109.846 8.42433 110.572 8.09437L109.745 6.27363C108.71 6.74367 107.854 7.43713 107.19 8.34683L108.806 9.52517ZM110.586 8.08807C111.317 7.74232 112.153 7.56 113.11 7.56V5.56C111.892 5.56 110.76 5.79368 109.731 6.27993L110.586 8.08807ZM113.11 7.56C114.525 7.56 115.428 7.92883 115.996 8.50821L117.424 7.10779C116.361 6.02317 114.864 5.56 113.11 5.56V7.56ZM116.003 8.51511C116.567 9.0791 116.85 9.88138 116.702 11.0947L118.687 11.3373C118.891 9.67062 118.517 8.2009 117.417 7.10089L116.003 8.51511ZM117.694 10.216H115.126V12.216H117.694V10.216ZM116.123 11.3008C116.204 10.3446 115.986 9.43741 115.305 8.75689L113.891 10.1711C114.043 10.3226 114.177 10.5834 114.13 11.1312L116.123 11.3008ZM115.305 8.75689C114.636 8.08721 113.713 7.84 112.726 7.84V9.84C113.404 9.84 113.729 10.0088 113.891 10.1711L115.305 8.75689ZM112.726 7.84C111.648 7.84 110.678 8.14957 109.903 8.83541L111.229 10.3326C111.575 10.0264 112.045 9.84 112.726 9.84V7.84ZM109.916 8.82474C109.137 9.49196 108.696 10.4154 108.523 11.4893L110.498 11.8067C110.613 11.0886 110.876 10.636 111.217 10.3433L109.916 8.82474ZM108.523 11.4913L107.971 14.9713L109.946 15.2847L110.498 11.8047L108.523 11.4913ZM107.971 14.9693C107.802 16.0235 107.921 17.0465 108.564 17.8438L110.121 16.5882C109.964 16.3935 109.827 16.0245 109.946 15.2867L107.971 14.9693ZM108.576 17.8586C109.244 18.655 110.223 18.96 111.286 18.96V16.96C110.59 16.96 110.273 16.769 110.109 16.5734L108.576 17.8586ZM111.286 18.96C112.289 18.96 113.204 18.7064 113.958 18.1304L112.743 16.5416C112.408 16.7976 111.947 16.96 111.286 16.96V18.96ZM113.958 18.1304C114.709 17.5557 115.182 16.7589 115.404 15.8119L113.457 15.3561C113.326 15.9131 113.079 16.2843 112.743 16.5416L113.958 18.1304ZM114.43 16.584H117.022V14.584H114.43V16.584ZM116.042 15.3879C115.799 16.6037 115.228 17.5187 114.333 18.1934L115.536 19.7906C116.849 18.8013 117.67 17.4443 118.003 15.7801L116.042 15.3879ZM114.327 18.1976C113.44 18.876 112.327 19.24 110.926 19.24V21.24C112.694 21.24 114.253 20.772 115.542 19.7864L114.327 18.1976ZM122.509 19.64L122.009 20.5059L122.02 20.5124L122.031 20.5186L122.509 19.64ZM120.973 17.864L120.041 18.2255L120.043 18.232L120.973 17.864ZM120.757 15.128L121.745 15.2801L121.746 15.279L120.757 15.128ZM121.285 11.672L120.299 11.5076L120.296 11.521L121.285 11.672ZM122.365 8.936L121.557 8.34677L121.549 8.35798L122.365 8.936ZM124.501 7.184L124.921 8.09147L124.928 8.08829L124.935 8.085L124.501 7.184ZM130.117 7.184L129.617 8.04986L129.624 8.05407L129.631 8.05816L130.117 7.184ZM131.653 8.936L130.723 9.30405L130.726 9.31236L130.73 9.32062L131.653 8.936ZM131.893 11.648L132.881 11.8047L132.881 11.8001L131.893 11.648ZM131.341 15.128L130.353 14.9713L130.353 14.9759L131.341 15.128ZM130.261 17.864L131.069 18.4532L131.075 18.4452L130.261 17.864ZM128.125 19.64L128.552 20.5445L128.559 20.541L128.125 19.64ZM127.717 17.24L128.379 17.9898L128.379 17.9898L127.717 17.24ZM128.749 15.128L129.737 15.2813L129.738 15.279L128.749 15.128ZM129.277 11.672L128.292 11.5021L128.29 11.5115L128.288 11.521L129.277 11.672ZM128.917 9.56L128.136 10.1847L128.142 10.1925L128.149 10.2002L128.917 9.56ZM123.877 11.672L122.892 11.5021L122.89 11.5115L122.888 11.521L123.877 11.672ZM123.349 15.128L124.337 15.2813L124.338 15.279L123.349 15.128ZM123.709 17.24L122.928 17.8647L122.934 17.8725L122.941 17.8802L123.709 17.24ZM125.221 19.24C124.27 19.24 123.541 19.0625 122.987 18.7614L122.031 20.5186C122.949 21.0175 124.028 21.24 125.221 21.24V19.24ZM123.009 18.7741C122.483 18.4701 122.123 18.0528 121.903 17.496L120.043 18.232C120.431 19.2112 121.095 19.9779 122.009 20.5059L123.009 18.7741ZM121.905 17.5025C121.679 16.9181 121.605 16.1899 121.745 15.2801L119.769 14.9759C119.589 16.1461 119.659 17.2419 120.041 18.2255L121.905 17.5025ZM121.746 15.279L122.274 11.823L120.296 11.521L119.768 14.977L121.746 15.279ZM122.271 11.8364C122.426 10.9088 122.736 10.1428 123.181 9.51402L121.549 8.35798C120.906 9.26517 120.496 10.3232 120.299 11.5076L122.271 11.8364ZM123.173 9.52517C123.633 8.89476 124.211 8.42018 124.921 8.09147L124.081 6.27653C123.063 6.74781 122.217 7.44124 121.557 8.34683L123.173 9.52517ZM124.935 8.085C125.648 7.74149 126.465 7.56 127.405 7.56V5.56C126.201 5.56 125.082 5.79451 124.067 6.283L124.935 8.085ZM127.405 7.56C128.37 7.56 129.089 7.74481 129.617 8.04986L130.617 6.31813C129.705 5.79119 128.616 5.56 127.405 5.56V7.56ZM129.631 8.05816C130.149 8.34553 130.504 8.75036 130.723 9.30405L132.583 8.56795C132.194 7.58564 131.525 6.82247 130.603 6.30984L129.631 8.05816ZM130.73 9.32062C130.963 9.87963 131.044 10.5899 130.905 11.4959L132.881 11.8001C133.062 10.6261 132.983 9.52837 132.576 8.55138L130.73 9.32062ZM130.905 11.4913L130.353 14.9713L132.329 15.2847L132.881 11.8047L130.905 11.4913ZM130.353 14.9759C130.214 15.8757 129.908 16.6376 129.447 17.2828L131.075 18.4452C131.734 17.5224 132.148 16.4603 132.329 15.2801L130.353 14.9759ZM129.453 17.2748C128.991 17.9084 128.408 18.3938 127.691 18.739L128.559 20.541C129.57 20.0542 130.411 19.3556 131.069 18.4532L129.453 17.2748ZM127.698 18.7356C127.004 19.0633 126.185 19.24 125.221 19.24V21.24C126.433 21.24 127.55 21.0167 128.552 20.5444L127.698 18.7356ZM125.581 18.96C126.65 18.96 127.615 18.6637 128.379 17.9898L127.055 16.4902C126.731 16.7763 126.272 16.96 125.581 16.96V18.96ZM128.379 17.9898C129.144 17.3146 129.568 16.3711 129.737 15.2813L127.761 14.9747C127.642 15.7409 127.378 16.2054 127.055 16.4902L128.379 17.9898ZM129.738 15.279L130.266 11.823L128.288 11.521L127.76 14.977L129.738 15.279ZM130.262 11.8419C130.447 10.7733 130.351 9.71934 129.685 8.91981L128.149 10.2002C128.283 10.3607 128.427 10.7147 128.292 11.5021L130.262 11.8419ZM129.698 8.9353C129.056 8.13264 128.083 7.84 127.045 7.84V9.84C127.735 9.84 128.01 10.0274 128.136 10.1847L129.698 8.9353ZM127.045 7.84C125.986 7.84 125.032 8.13925 124.271 8.81016L125.595 10.3098C125.922 10.0207 126.376 9.84 127.045 9.84V7.84ZM124.271 8.81016C123.511 9.48082 123.079 10.4172 122.892 11.5021L124.862 11.8419C124.995 11.0708 125.267 10.5992 125.595 10.3098L124.271 8.81016ZM122.888 11.521L122.36 14.977L124.338 15.279L124.866 11.823L122.888 11.521ZM122.361 14.9747C122.196 16.0343 122.295 17.0727 122.928 17.8647L124.49 16.6153C124.355 16.4473 124.214 16.0777 124.337 15.2813L122.361 14.9747ZM122.941 17.8802C123.592 18.6622 124.548 18.96 125.581 18.96V16.96C124.918 16.96 124.626 16.7778 124.477 16.5998L122.941 17.8802ZM135.772 19.256L135.105 20.0017L135.114 20.0091L135.122 20.0164L135.772 19.256ZM134.788 16.592V15.592H133.871L133.791 16.5054L134.788 16.592ZM137.38 16.592H138.38V15.592H137.38V16.592ZM137.908 17.648L138.519 16.8567L138.519 16.8567L137.908 17.648ZM142.3 17.576L142.895 18.3796L142.9 18.376L142.3 17.576ZM143.116 16.28L144.099 16.4589L144.104 16.4316L144.108 16.404L143.116 16.28ZM142.756 15.056L142.012 15.725L142.03 15.7445L142.049 15.7631L142.756 15.056ZM141.292 14.432L141.134 15.4195L141.144 15.4211L141.153 15.4224L141.292 14.432ZM139.636 14.168L139.793 13.1805L139.787 13.1795L139.636 14.168ZM136.708 12.992L136 13.6992L136.01 13.7087L136.708 12.992ZM136.108 10.4L137.096 10.551L137.097 10.5432L136.108 10.4ZM137.716 7.568L137.122 6.76292L137.116 6.768L137.716 7.568ZM145.468 7.52L144.803 8.26745L144.811 8.2746L145.468 7.52ZM146.476 10.064V11.064H147.417L147.474 10.1245L146.476 10.064ZM143.884 10.064H142.884V11.064H143.884V10.064ZM143.38 9.128L142.755 9.90887L142.776 9.92589L142.798 9.94173L143.38 9.128ZM139.372 9.176L138.772 8.376L138.772 8.376L139.372 9.176ZM138.652 10.424L137.667 10.2502L137.663 10.271L137.66 10.2918L138.652 10.424ZM140.236 12.08L140.063 13.065L140.073 13.0667L140.083 13.0682L140.236 12.08ZM141.94 12.344L142.093 11.3559L142.093 11.3558L141.94 12.344ZM145.012 13.568L144.314 14.2845L144.323 14.2935L145.012 13.568ZM145.684 16.208L146.67 16.3704L146.672 16.357L145.684 16.208ZM143.956 19.184L144.56 19.9807L144.562 19.9791L143.956 19.184ZM139.084 19.24C137.782 19.24 136.944 18.9426 136.421 18.4956L135.122 20.0164C136.135 20.8814 137.505 21.24 139.084 21.24V19.24ZM136.438 18.5103C135.946 18.0712 135.712 17.5045 135.784 16.6786L133.791 16.5054C133.671 17.8875 134.093 19.0968 135.105 20.0017L136.438 18.5103ZM134.788 17.592H137.38V15.592H134.788V17.592ZM136.38 16.592C136.38 17.3443 136.708 17.9845 137.296 18.4393L138.519 16.8567C138.404 16.7675 138.38 16.7037 138.38 16.592H136.38ZM137.296 18.4393C137.889 18.8975 138.643 19.056 139.42 19.056V17.056C138.884 17.056 138.63 16.9425 138.519 16.8567L137.296 18.4393ZM139.42 19.056H140.452V17.056H139.42V19.056ZM140.452 19.056C141.366 19.056 142.225 18.8758 142.895 18.3796L141.704 16.7724C141.51 16.9162 141.137 17.056 140.452 17.056V19.056ZM142.9 18.376C143.54 17.896 143.956 17.2465 144.099 16.4589L142.132 16.1011C142.083 16.3695 141.956 16.584 141.7 16.776L142.9 18.376ZM144.108 16.404C144.202 15.6543 144.029 14.9156 143.463 14.3489L142.049 15.7631C142.09 15.8044 142.158 15.8817 142.123 16.156L144.108 16.404ZM143.499 14.387C142.982 13.8125 142.217 13.5515 141.43 13.4416L141.153 15.4224C141.742 15.5045 141.953 15.6595 142.012 15.725L143.499 14.387ZM141.449 13.4445L139.793 13.1805L139.478 15.1555L141.134 15.4195L141.449 13.4445ZM139.787 13.1795C138.509 12.984 137.778 12.6379 137.405 12.2753L136.01 13.7087C136.822 14.4981 138.043 14.936 139.484 15.1565L139.787 13.1795ZM137.415 12.2849C137.15 12.0199 136.946 11.5321 137.096 10.551L135.119 10.249C134.917 11.5719 135.114 12.8121 136.001 13.6991L137.415 12.2849ZM137.097 10.5432C137.239 9.56118 137.653 8.86509 138.316 8.368L137.116 6.768C135.986 7.61491 135.328 8.80682 135.118 10.2568L137.097 10.5432ZM138.309 8.37306C138.994 7.86816 140.001 7.56 141.436 7.56V5.56C139.734 5.56 138.261 5.92384 137.122 6.76294L138.309 8.37306ZM141.436 7.56H142.348V5.56H141.436V7.56ZM142.348 7.56C143.563 7.56 144.329 7.84627 144.803 8.26741L146.132 6.77259C145.166 5.91373 143.852 5.56 142.348 5.56V7.56ZM144.811 8.2746C145.291 8.69165 145.525 9.22728 145.477 10.0035L147.474 10.1245C147.555 8.78872 147.116 7.62835 146.124 6.76539L144.811 8.2746ZM146.476 9.064H143.884V11.064H146.476V9.064ZM144.884 10.064C144.884 9.32956 144.536 8.72541 143.961 8.31427L142.798 9.94173C142.862 9.98753 142.877 10.0152 142.877 10.0161C142.878 10.0178 142.879 10.0197 142.88 10.0241C142.881 10.029 142.884 10.0413 142.884 10.064H144.884ZM144.004 8.34713C143.439 7.89498 142.717 7.744 141.988 7.744V9.744C142.474 9.744 142.68 9.84902 142.755 9.90887L144.004 8.34713ZM141.988 7.744H141.076V9.744H141.988V7.744ZM141.076 7.744C140.222 7.744 139.402 7.90311 138.772 8.376L139.972 9.976C140.109 9.87289 140.425 9.744 141.076 9.744V7.744ZM138.772 8.376C138.154 8.83932 137.8 9.49668 137.667 10.2502L139.636 10.5978C139.695 10.2633 139.821 10.0887 139.972 9.976L138.772 8.376ZM137.66 10.2918C137.573 10.9501 137.671 11.6622 138.186 12.2119L139.645 10.8441C139.653 10.8527 139.649 10.8561 139.642 10.8274C139.634 10.791 139.623 10.707 139.643 10.5562L137.66 10.2918ZM138.186 12.2119C138.655 12.7126 139.368 12.9433 140.063 13.065L140.408 11.095C140.137 11.0475 139.943 10.9905 139.811 10.9354C139.677 10.8794 139.641 10.8392 139.645 10.8441L138.186 12.2119ZM140.083 13.0682L141.787 13.3322L142.093 11.3558L140.389 11.0918L140.083 13.0682ZM141.786 13.3321C143.152 13.5446 143.928 13.9084 144.314 14.2845L145.709 12.8515C144.879 12.0436 143.607 11.5914 142.093 11.3559L141.786 13.3321ZM144.323 14.2935C144.628 14.5826 144.842 15.083 144.695 16.059L146.672 16.357C146.877 14.997 146.643 13.7374 145.7 12.8425L144.323 14.2935ZM144.697 16.0456C144.527 17.0797 144.073 17.8364 143.349 18.3889L144.562 19.9791C145.726 19.0916 146.425 17.8643 146.67 16.3704L144.697 16.0456ZM143.351 18.3873C142.656 18.9146 141.609 19.24 140.092 19.24V21.24C141.87 21.24 143.399 20.8614 144.56 19.9807L143.351 18.3873ZM140.092 19.24H139.084V21.24H140.092V19.24Z" fill="black" mask="url(#path-1-outside-1_7_27)"/>
</g>
<defs>
<filter id="filter0_d_7_27" x="0.549278" y="0.231998" width="150.934" height="29.008" filterUnits="userSpaceOnUse" color-interpolation-filters="sRGB">
<feFlood flood-opacity="0" result="BackgroundImageFix"/>
<feColorMatrix in="SourceAlpha" type="matrix" values="0 0 0 0 0 0 0 0 0 0 0 0 0 0 0 0 0 0 127 0" result="hardAlpha"/>
<feOffset dy="4"/>
<feGaussianBlur stdDeviation="2"/>
<feComposite in2="hardAlpha" operator="out"/>
<feColorMatrix type="matrix" values="0 0 0 0 0 0 0 0 0 0 0 0 0 0 0 0 0 0 0.25 0"/>
<feBlend mode="normal" in2="BackgroundImageFix" result="effect1_dropShadow_7_27"/>
<feBlend mode="normal" in="SourceGraphic" in2="effect1_dropShadow_7_27" result="shape"/>
</filter>
</defs>
</svg>
