<svg width="142" height="20" viewBox="0 0 142 20" fill="none" xmlns="http://www.w3.org/2000/svg">
<path d="M5.192 19.24C4.104 19.24 3.184 19.04 2.432 18.64C1.696 18.224 1.168 17.632 0.848 16.864C0.544 16.08 0.472 15.168 0.632 14.128L1.856 6.352C2.032 5.296 2.4 4.384 2.96 3.616C3.52 2.848 4.232 2.264 5.096 1.864C5.976 1.448 6.96 1.24 8.048 1.24C9.136 1.24 10.04 1.448 10.76 1.864C11.496 2.28 12.024 2.872 12.344 3.64C12.68 4.392 12.76 5.296 12.584 6.352H9.992C10.152 5.44 10.024 4.744 9.608 4.264C9.208 3.784 8.568 3.544 7.688 3.544C6.808 3.544 6.08 3.784 5.504 4.264C4.944 4.744 4.592 5.432 4.448 6.328L3.224 14.128C3.08 15.024 3.216 15.72 3.632 16.216C4.048 16.712 4.688 16.96 5.552 16.96C6.432 16.96 7.152 16.712 7.712 16.216C8.272 15.72 8.624 15.024 8.768 14.128L9.08 12.16H5.816L6.176 9.88H12.032L11.36 14.128C11.2 15.168 10.84 16.072 10.28 16.84C9.72 17.608 9 18.2 8.12 18.616C7.256 19.032 6.28 19.24 5.192 19.24ZM19.4866 19.24C18.4146 19.24 17.5186 19.032 16.7986 18.616C16.0786 18.184 15.5586 17.584 15.2386 16.816C14.9346 16.048 14.8626 15.152 15.0226 14.128L15.5506 10.672C15.7266 9.632 16.0946 8.736 16.6546 7.984C17.2146 7.216 17.9186 6.624 18.7666 6.208C19.6306 5.776 20.5986 5.56 21.6706 5.56C22.7586 5.56 23.6626 5.776 24.3826 6.208C25.1026 6.624 25.6146 7.216 25.9186 7.984C26.2386 8.736 26.3106 9.632 26.1346 10.672L25.7746 13.024H17.6866L17.5186 14.128C17.3746 15.104 17.4946 15.848 17.8786 16.36C18.2626 16.872 18.9186 17.128 19.8466 17.128C20.5986 17.128 21.2146 17 21.6946 16.744C22.1906 16.472 22.5346 16.08 22.7266 15.568H25.2946C25.0546 16.32 24.6546 16.968 24.0946 17.512C23.5506 18.056 22.8786 18.48 22.0786 18.784C21.2946 19.088 20.4306 19.24 19.4866 19.24ZM23.5186 11.464L23.6386 10.648C23.7986 9.688 23.6866 8.944 23.3026 8.416C22.9346 7.888 22.2866 7.624 21.3586 7.624C20.4306 7.624 19.6866 7.888 19.1266 8.416C18.5826 8.944 18.2306 9.696 18.0706 10.672L17.9746 11.272L23.7346 11.248L23.5186 11.464ZM33.8773 19.24C32.8053 19.24 31.9013 19.04 31.1653 18.64C30.4453 18.224 29.9333 17.632 29.6293 16.864C29.3253 16.08 29.2533 15.168 29.4133 14.128L29.9413 10.672C30.1173 9.616 30.4773 8.704 31.0213 7.936C31.5813 7.168 32.2933 6.584 33.1573 6.184C34.0213 5.768 34.9893 5.56 36.0613 5.56C37.1493 5.56 38.0533 5.768 38.7733 6.184C39.4933 6.584 40.0053 7.168 40.3093 7.936C40.6293 8.704 40.7093 9.608 40.5493 10.648L39.9973 14.128C39.8373 15.168 39.4773 16.08 38.9173 16.864C38.3573 17.632 37.6453 18.224 36.7813 18.64C35.9333 19.04 34.9653 19.24 33.8773 19.24ZM34.2373 16.96C35.1173 16.96 35.8293 16.72 36.3733 16.24C36.9173 15.76 37.2613 15.056 37.4053 14.128L37.9333 10.672C38.0933 9.744 37.9733 9.04 37.5733 8.56C37.1893 8.08 36.5653 7.84 35.7013 7.84C34.8373 7.84 34.1333 8.08 33.5893 8.56C33.0453 9.04 32.6933 9.744 32.5333 10.672L32.0053 14.128C31.8613 15.056 31.9813 15.76 32.3653 16.24C32.7653 16.72 33.3893 16.96 34.2373 16.96ZM42.6999 19L45.4839 1.48H48.6279L49.4679 7.096C49.5479 7.624 49.6199 8.136 49.6839 8.632C49.7479 9.112 49.7879 9.472 49.8039 9.712C49.8999 9.472 50.0359 9.112 50.2119 8.632C50.4039 8.136 50.6279 7.624 50.8839 7.096L53.4759 1.48H56.7159L53.9319 19H51.4839L52.4199 13.096C52.5479 12.312 52.6999 11.464 52.8759 10.552C53.0679 9.624 53.2759 8.696 53.4999 7.768C53.7239 6.84 53.9399 5.952 54.1479 5.104C54.3719 4.256 54.5639 3.512 54.7239 2.872L50.8119 11.392H48.2919L46.9959 2.872C46.9799 3.496 46.9479 4.224 46.8999 5.056C46.8519 5.872 46.7879 6.744 46.7079 7.672C46.6279 8.6 46.5399 9.536 46.4439 10.48C46.3479 11.408 46.2279 12.28 46.0839 13.096L45.1479 19H42.6999ZM62.6585 19.24C61.5865 19.24 60.6905 19.032 59.9705 18.616C59.2505 18.184 58.7305 17.584 58.4105 16.816C58.1065 16.048 58.0345 15.152 58.1945 14.128L58.7225 10.672C58.8985 9.632 59.2665 8.736 59.8265 7.984C60.3865 7.216 61.0905 6.624 61.9385 6.208C62.8025 5.776 63.7705 5.56 64.8425 5.56C65.9305 5.56 66.8345 5.776 67.5545 6.208C68.2745 6.624 68.7865 7.216 69.0905 7.984C69.4105 8.736 69.4825 9.632 69.3065 10.672L68.9465 13.024H60.8585L60.6905 14.128C60.5465 15.104 60.6665 15.848 61.0505 16.36C61.4345 16.872 62.0905 17.128 63.0185 17.128C63.7705 17.128 64.3865 17 64.8665 16.744C65.3625 16.472 65.7065 16.08 65.8985 15.568H68.4665C68.2265 16.32 67.8265 16.968 67.2665 17.512C66.7225 18.056 66.0505 18.48 65.2505 18.784C64.4665 19.088 63.6025 19.24 62.6585 19.24ZM66.6905 11.464L66.8105 10.648C66.9705 9.688 66.8585 8.944 66.4745 8.416C66.1065 7.888 65.4585 7.624 64.5305 7.624C63.6025 7.624 62.8585 7.888 62.2985 8.416C61.7545 8.944 61.4025 9.696 61.2425 10.672L61.1465 11.272L66.9065 11.248L66.6905 11.464ZM76.1131 19.24C74.8011 19.24 73.8251 18.792 73.1851 17.896C72.5451 17 72.3451 15.792 72.5851 14.272L73.1611 10.552C73.3211 9.512 73.6411 8.624 74.1211 7.888C74.6011 7.152 75.1931 6.584 75.8971 6.184C76.6171 5.768 77.4171 5.56 78.2971 5.56C79.3851 5.56 80.2011 5.864 80.7451 6.472C81.3051 7.064 81.4971 7.88 81.3211 8.92L80.8651 8.32H81.4411L81.8731 5.248L82.4971 1.48H85.0651L82.2811 19H79.7371L80.1451 16.48H79.5931L80.2411 15.88C80.0651 16.92 79.6011 17.744 78.8491 18.352C78.1131 18.944 77.2011 19.24 76.1131 19.24ZM77.3851 16.984C78.2011 16.984 78.8811 16.736 79.4251 16.24C79.9851 15.728 80.3371 15.024 80.4811 14.128L81.0091 10.672C81.1691 9.776 81.0491 9.08 80.6491 8.584C80.2651 8.072 79.6571 7.816 78.8251 7.816C77.9771 7.816 77.2891 8.064 76.7611 8.56C76.2331 9.04 75.8891 9.744 75.7291 10.672L75.2011 14.128C75.0411 15.056 75.1531 15.768 75.5371 16.264C75.9211 16.744 76.5371 16.984 77.3851 16.984ZM86.1357 19L86.5198 16.648H91.1518L92.4958 8.152H88.4638L88.8238 5.8H95.3758L93.6718 16.648H97.9438L97.5598 19H86.1357ZM94.3198 3.52C93.7598 3.52 93.3358 3.376 93.0478 3.088C92.7758 2.784 92.6718 2.384 92.7358 1.888C92.8318 1.376 93.0638 0.975999 93.4318 0.688C93.8158 0.383999 94.2878 0.231998 94.8478 0.231998C95.4078 0.231998 95.8318 0.383999 96.1198 0.688C96.4078 0.975999 96.5118 1.376 96.4318 1.888C96.3518 2.384 96.1198 2.784 95.7358 3.088C95.3678 3.376 94.8958 3.52 94.3198 3.52ZM105.926 19.24C104.838 19.24 103.918 19.04 103.166 18.64C102.43 18.224 101.902 17.632 101.582 16.864C101.278 16.08 101.206 15.168 101.366 14.128L101.894 10.672C102.07 9.616 102.438 8.704 102.998 7.936C103.558 7.168 104.278 6.584 105.158 6.184C106.038 5.768 107.022 5.56 108.11 5.56C109.694 5.56 110.894 5.976 111.71 6.808C112.542 7.64 112.87 8.776 112.694 10.216H110.126C110.19 9.464 110.014 8.88 109.598 8.464C109.182 8.048 108.558 7.84 107.726 7.84C106.846 7.84 106.126 8.088 105.566 8.584C105.006 9.064 104.654 9.752 104.51 10.648L103.958 14.128C103.814 15.024 103.942 15.72 104.342 16.216C104.758 16.712 105.406 16.96 106.286 16.96C107.118 16.96 107.806 16.752 108.35 16.336C108.894 15.92 109.254 15.336 109.43 14.584H112.022C111.734 16.024 111.038 17.16 109.934 17.992C108.846 18.824 107.51 19.24 105.926 19.24ZM120.221 19.24C119.149 19.24 118.245 19.04 117.509 18.64C116.789 18.224 116.277 17.632 115.973 16.864C115.669 16.08 115.597 15.168 115.757 14.128L116.285 10.672C116.461 9.616 116.821 8.704 117.365 7.936C117.925 7.168 118.637 6.584 119.501 6.184C120.365 5.768 121.333 5.56 122.405 5.56C123.493 5.56 124.397 5.768 125.117 6.184C125.837 6.584 126.349 7.168 126.653 7.936C126.973 8.704 127.053 9.608 126.893 10.648L126.341 14.128C126.181 15.168 125.821 16.08 125.261 16.864C124.701 17.632 123.989 18.224 123.125 18.64C122.277 19.04 121.309 19.24 120.221 19.24ZM120.581 16.96C121.461 16.96 122.173 16.72 122.717 16.24C123.261 15.76 123.605 15.056 123.749 14.128L124.277 10.672C124.437 9.744 124.317 9.04 123.917 8.56C123.533 8.08 122.909 7.84 122.045 7.84C121.181 7.84 120.477 8.08 119.933 8.56C119.389 9.04 119.037 9.744 118.877 10.672L118.349 14.128C118.205 15.056 118.325 15.76 118.709 16.24C119.109 16.72 119.733 16.96 120.581 16.96ZM134.084 19.24C132.644 19.24 131.54 18.912 130.772 18.256C130.02 17.584 129.692 16.696 129.788 15.592H132.38C132.38 16.024 132.556 16.376 132.908 16.648C133.26 16.92 133.764 17.056 134.42 17.056H135.452C136.252 17.056 136.868 16.896 137.3 16.576C137.748 16.24 138.02 15.808 138.116 15.28C138.18 14.768 138.06 14.36 137.756 14.056C137.468 13.736 136.98 13.528 136.292 13.432L134.636 13.168C133.276 12.96 132.3 12.568 131.708 11.992C131.132 11.416 130.932 10.552 131.108 9.4C131.284 8.184 131.82 7.24 132.716 6.568C133.628 5.896 134.868 5.56 136.436 5.56H137.348C138.708 5.56 139.748 5.88 140.468 6.52C141.204 7.16 141.54 8.008 141.476 9.064H138.884C138.884 8.68 138.716 8.368 138.38 8.128C138.06 7.872 137.596 7.744 136.988 7.744H136.076C135.324 7.744 134.756 7.888 134.372 8.176C133.988 8.464 133.748 8.88 133.652 9.424C133.588 9.904 133.676 10.272 133.916 10.528C134.156 10.784 134.596 10.968 135.236 11.08L136.94 11.344C138.38 11.568 139.404 11.976 140.012 12.568C140.636 13.16 140.86 14.04 140.684 15.208C140.476 16.472 139.9 17.464 138.956 18.184C138.028 18.888 136.74 19.24 135.092 19.24H134.084Z" fill="#517AFF"/>
</svg>
